<?xml version="1.0" encoding="utf-8"?>
<!-- Generator: Adobe Illustrator 17.1.0, SVG Export Plug-In . SVG Version: 6.00 Build 0)  -->
<!DOCTYPE svg PUBLIC "-//W3C//DTD SVG 1.0//EN" "http://www.w3.org/TR/2001/REC-SVG-20010904/DTD/svg10.dtd">
<svg version="1.0" id="Calque_1" xmlns="http://www.w3.org/2000/svg" xmlns:xlink="http://www.w3.org/1999/xlink" x="0px" y="0px"
	 viewBox="0 0 28.3 23.7" enable-background="new 0 0 28.3 23.7" xml:space="preserve">
<g>
	<path d="M4.4,20.6c0,0.1-0.1,0.3-0.1,0.5c-0.1,0.2,0.1-0.4,0-0.2c-0.1,0,0-0.2,0-0.1c0-0.2,0.1-0.3,0.1-0.4
		C4.5,20.1,4.4,20.7,4.4,20.6z M22,22.1c-0.1-0.1-0.1,0.1-0.2,0.1c-0.1,0-0.3,0-0.4,0c-0.1-0.2-0.1-0.5-0.3-0.5
		c-0.1,0-0.1,0.4,0.1,0.5c-0.1,0.2,0.1,0.4,0,0.5c-0.1,0-0.1-0.1-0.1-0.1C21,22.8,20.9,23,20.8,23c-0.1-0.1-0.1-0.1-0.3,0
		c0-0.1-0.1-0.1-0.1-0.2c-0.1,0,0,0.1-0.1,0.2c-0.1,0-0.2-0.1-0.2,0c-0.1-0.1-0.1-0.2-0.2-0.2c-0.1,0.1,0,0.2-0.1,0.2
		c-0.2,0-0.4-0.1-0.5-0.3c-0.1,0.2,0.1,0.1,0.1,0.2c0,0.1,0,0,0,0c-0.1,0.1,0.1,0.3,0,0.3c0.1,0.1,0.2,0,0.3-0.1
		c-0.1,0.2-0.3,0.2-0.4,0.1c0-0.1,0-0.1-0.1-0.2c-0.1,0.1-0.2,0.2-0.3,0.3c-0.1,0-0.1-0.1-0.1-0.1c-0.1,0.2-0.3,0-0.3,0.2
		c-0.2-0.2-0.3-0.2-0.4-0.4c-0.1,0,0,0.2,0,0.2c-0.2,0-0.2-0.1-0.4-0.2l-0.1-0.2c0,0,0,0.1,0,0.1c0-0.2-0.3-0.8-0.2-1
		c0,0.2,0.2,0.3,0.2,0.5c0-0.3-0.2-0.8-0.3-1.2c-0.2-0.4-0.3-0.9-0.4-1.4c0.1,0.1,0-0.1,0-0.2C17,19.7,17,19.2,16.9,19
		c0,0,0,0.1,0,0.1c-0.1-0.1-0.2-0.5-0.2-0.8c0,0,0,0.1,0,0.1c-0.1,0-0.1-0.1-0.1-0.2c0,0,0,0,0.1,0.1c0,0,0-0.1,0-0.1
		c-0.2-0.5,0-0.1,0.1,0.2c0.1-0.3-0.2-1-0.3-1.5c0,0.3,0.2,0.7,0.1,0.9c-0.1-0.4-0.2-0.7-0.3-1c-0.1-0.3-0.2-0.6-0.2-0.9
		c0,0,0-0.1,0-0.2c0-0.1-0.2-0.3-0.2-0.5c0,0-0.1,0-0.1,0c0-0.1,0-0.2,0-0.3c0,0-0.1,0-0.1,0c0.1,0,0.1,0,0.1,0.1
		c0,0-0.1-0.1-0.1-0.1c-0.1,0-0.1,0-0.1-0.1c0,0.1-0.2,0.1-0.3,0.1c-0.1,0-0.3,0-0.5,0c-0.6,0.1-1.4,0.3-2.2,0.3h0h-0.1
		c0.1-0.1,0.2,0,0.2,0c0.1-0.1,0.2-0.1,0.4-0.1c-0.1-0.1-0.2,0-0.2-0.1c0.1-0.1,0.2-0.1,0.3-0.1c-0.1-0.1-0.3,0.1-0.5,0.1
		c0,0,0,0,0.1,0.1c0,0.1-0.1,0-0.1-0.1c-0.8,0.1-1.5,0.2-2.2,0.3c0,0.1-0.1,0.2-0.1,0.3c-0.1,0.2-0.1,0.4-0.2,0.6l0,0.1l0,0.1
		c0-0.1,0.1-0.4,0.2-0.5c0-0.1,0-0.2,0.1-0.3c0-0.1,0.1-0.2,0.1-0.3c-0.1,0-0.1,0-0.1,0c0,0.1-0.1,0.2-0.1,0.3c0-0.1,0-0.2,0-0.3h0
		c0,0.1,0,0.1-0.1,0.2c0,0.1-0.1,0.2-0.1,0.3c0,0,0.1-0.1,0.1-0.1c0.1,0.1-0.1,0.1-0.1,0.1c-0.4,0.9-0.6,1.7-0.9,2.5
		s-0.5,1.5-0.7,2.3L8.4,21c0,0.1-0.1,0.2,0,0.1c0-0.1,0.1-0.3,0.1-0.4c0.1,0,0.1-0.2,0.1-0.2c-0.1-0.1,0.1-0.3,0.1-0.4
		c-0.1,0.1-0.1,0.2-0.2,0.4c0-0.2,0.1-0.4,0.1-0.6c-0.1,0.1-0.2,0.3-0.2,0.4c-0.1-0.1,0-0.3-0.1-0.3c-0.1,0.1-0.2,0.4-0.2,0.6
		c0,0,0,0,0-0.1c0.1,0.3-0.3,0.9-0.2,1.2c0,0,0-0.1,0-0.1c-0.1,0.1,0,0.2,0,0.3c-0.1-0.1,0-0.4-0.1-0.4c0-0.3,0.1-0.4,0.1-0.7
		c0.1,0,0,0.3,0,0.3c0.1-0.1,0.1-0.3,0.1-0.5c-0.1,0,0,0.1-0.1,0.1C8,20.2,8,19.8,8.2,19.3c-0.1,0.3-0.2,0.8-0.3,1.1
		c0-0.1,0-0.2,0-0.3c-0.2,0.1-0.1,0.4-0.2,0.6c-0.1,0.3,0-0.1,0.1-0.2c0.1-0.2,0.1-0.4,0.1-0.5c0,0.1-0.2,0.1-0.1,0
		c-0.2,0.2-0.2,0.5-0.3,0.9c-0.1-0.2,0.1-0.9,0.2-1.1c-0.1,0.1-0.1,0.3-0.2,0.5c0,0.1,0,0.1-0.1,0l-0.1,0.3c0,0.1-0.1,0.3,0,0.1
		c0-0.2,0.1-0.6,0.2-0.8c0-0.1,0-0.1,0-0.2c-0.2,0.2-0.3,0.8-0.4,1.2c0,0-0.1,0-0.1,0.1c-0.1-0.1,0-0.2,0-0.3
		c0.1-0.5,0.1-0.9,0.3-1.5c0.1,0-0.1,0.5,0,0.1c0.1,0,0.1,0.1,0.1,0.2c0.1-0.1,0.1-0.4,0.3-0.5c0.1,0,0,0.1,0,0.2
		c0.1,0,0.1-0.1,0.1-0.1c0,0.1-0.1,0.4-0.2,0.6c0.5-1.1,0.8-1.9,1.1-3.1c-0.1,0.2-0.2,0.5-0.3,0.7c0-0.2,0.1-0.2,0.1-0.4
		c-0.2,0.3-0.3,0.5-0.4,0.9c0.1,0,0.1-0.2,0.2-0.2c-0.1,0.4-0.3,1.1-0.5,1.5c0.1-0.3,0.2-0.5,0.3-0.8c-0.2,0.2-0.2,0.3-0.3,0.5
		c0,0.1,0.1-0.3,0.1-0.3c0.1-0.3,0.2-0.9,0.3-1.1l0,0.1c0-0.1,0-0.3,0.1-0.4c0.1-0.4,0.3-0.8,0.4-1.3c-0.1,0-0.1,0.5-0.3,0.5
		c0.1-0.1,0.1-0.4,0.2-0.5c-0.2,0.4-0.2,0.6-0.4,1c0,0,0-0.1,0-0.1c-0.2,0.2-0.3,0.8-0.5,1.2c0-0.1-0.1,0,0-0.2
		c-0.2,0.3-0.2,0.4-0.3,0.8c0-0.3,0.2-0.7,0.3-1.1c0,0,0,0.1,0,0.1C8,16.6,8,16.4,8.2,16.1c0,0,0,0.1-0.1,0.1c0-0.2,0.2-0.5,0.2-0.6
		c-0.1,0.3-0.2,0.6-0.3,0.9c-0.1,0,0-0.1,0-0.1c-0.2,0.4-0.5,1.1-0.6,1.7c0.1,0,0.1-0.1,0.1-0.1C7.3,18.2,7.1,18.8,7,19
		c0.1,0.1,0.1-0.1,0.1-0.1C7.2,19,7,19.2,7,19.4c0.1-0.1,0.2-0.5,0.3-0.5c-0.1-0.1,0-0.1,0-0.2c-0.1,0-0.1,0.2-0.2,0.2
		c0-0.1,0.1-0.3,0.3-0.4c0-0.2,0.2-0.4,0.2-0.5c0.1,0.2-0.2,0.4-0.2,0.6c0.1-0.1,0.1-0.1,0.1-0.2c0,0.4-0.4,1.3-0.5,1.8
		c-0.1,0.1,0-0.1,0-0.2c-0.1,0.1-0.1,0,0-0.1c-0.2,0.5-0.3,0.9-0.4,1.6c0,0.1-0.1,0.1,0,0l0-0.2c0-0.1-0.1-0.1,0-0.2
		c0-0.1,0-0.1,0.1,0c0-0.1-0.1,0-0.1-0.1c0.1-0.3,0.2-0.6,0.2-1c-0.2,0.7-0.3,1.2-0.4,1.7c0-0.2,0-0.4,0.1-0.7c0,0.1,0,0.1,0,0.1
		c0-0.1,0-0.2,0.1-0.3c0,0,0,0,0,0c0-0.2,0.1-0.4,0.1-0.6c0.1-0.1,0,0.1,0,0.2c0.1,0,0.1-0.2,0.1-0.4C6.7,20,7,19.6,7,19.4
		c-0.1,0-0.1,0.1-0.1,0.2c-0.1,0.1,0-0.1,0-0.2c-0.1,0.2-0.2,0.4-0.2,0.7c0-0.2,0-0.3,0.1-0.5c-0.2,0.5-0.3,1.3-0.4,1.8
		c-0.2-0.1,0-0.3,0-0.5c-0.1,0.2-0.1,0.6-0.2,0.7c0-0.6,0.2-1.3,0.3-2.1c-0.1,0.1-0.1,0.2-0.2,0.3c0,0,0.1-0.1,0.1-0.1
		c0.1,0.1-0.1,0.2-0.1,0.3l0.1,0.1c0,0.2-0.2,0.6-0.2,0.3C6.1,20.8,6.1,21,6,21.4c0,0.1-0.1,0-0.1,0c0,0.1-0.1,0.4,0,0.5
		c-0.2-0.1,0.1-0.5,0-0.7c-0.1,0-0.1,0.3-0.1,0.4c0.1-0.1-0.1,0.2-0.1,0.4c0-0.1,0-0.3,0-0.5c-0.1,0.1-0.1,0.3-0.1,0.4
		s0,0.4-0.1,0.4c0-0.7,0-1.2,0.2-2.2c-0.1,0-0.2,0.1-0.2,0.2c0,0,0-0.1,0.1-0.1c0,0.1-0.1,0.2-0.1,0.2c0-0.2-0.1,0,0-0.2
		c-0.1,0.2-0.1,0.5-0.2,0.8c-0.1-0.2,0-0.4,0-0.5c0-0.1,0-0.1,0,0c0-0.2,0-0.1,0.1-0.5c0-0.1-0.1,0.1-0.1-0.1
		c0.1-0.3,0.1-0.5,0.2-0.8c0,0-0.1,0.1-0.1,0.1c0-0.2,0-0.3,0.1-0.4c-0.1,0-0.1,0.2-0.1,0.2c0.1-0.4,0.2-0.8,0.3-1.2
		c0.1,0,0,0,0.1,0.1c0.1-0.4,0.1-0.2,0,0.1c0.2,0.1,0.3-0.4,0.3-0.5c-0.1,0.1-0.1,0.3-0.2,0.4c0,0.1-0.1,0,0,0
		c0.2-0.5,0.3-0.9,0.5-1.4c0-0.1,0.1-0.1,0.1-0.1c0.1-0.2,0.1-0.3,0.2-0.4c0.1-0.3-0.1,0.1-0.1,0.2c0.1,0,0.2-0.4,0.2-0.5
		C7,15.7,7,15.6,7,15.5c-0.1,0-0.1,0.2-0.1,0.3c-0.1-0.2-0.1,0.2-0.1,0.3c-0.1,0-0.2,0.2-0.2,0.3c-0.2,0.4,0.1-0.2,0.1-0.4
		c0.1-0.2,0.1-0.4,0.2-0.6C7,15.2,7,15,7,14.9c0.1,0,0.3-0.9,0.3-0.6l-0.1,0.2c0,0.2-0.1,0.4-0.2,0.5c0.3-0.4,0.4-1.1,0.5-1.6
		c-0.2,0.2-0.2,0.7-0.4,0.8c-0.1-0.1,0.1-0.3,0.1-0.5c-0.1,0.2-0.2,0.4-0.3,0.6c-0.1-0.3,0.1-0.5,0.2-0.7c-0.3,0.2-0.3,1-0.5,1.2
		c0,0,0,0,0-0.1c-0.1,0-0.1,0.1-0.1,0.2c0,0,0.1,0,0.1-0.1c0,0.2-0.2,0.4-0.2,0.5c0,0,0-0.1,0-0.1c-0.2,0.3-0.3,1-0.6,1.5
		c0,0,0.1,0,0.1-0.1c0,0.1,0,0.2-0.1,0.3c0.1-0.1,0.2-0.6,0.4-0.7c-0.3,0.5-0.3,1.1-0.7,1.6c0,0,0.1-0.1,0.1-0.2
		c-0.1,0-0.1,0.1-0.1,0c-0.2,0.3-0.3,0.6-0.4,1c-0.1,0.1,0.1-0.3,0.1-0.4C5.3,18.8,5,19.3,5,19.7c0,0,0-0.1,0-0.1
		c-0.1,0.3-0.2,0.8-0.3,1.2c0.1-0.7,0.2-1.7,0.5-2.4c0-0.1,0-0.1,0,0c0-0.4,0.3-0.9,0.5-1.3c0.1,0,0.1,0.1,0.1,0.1L5.8,17
		c0.1,0,0,0.1,0,0.1c0.3-0.5,0.5-1,0.7-1.5c0.1-0.3,0.2-0.5,0.3-0.8c0.1-0.3,0.2-0.5,0.3-0.8c-0.2,0.3-0.2,0.7-0.4,1
		c0,0.1-0.1,0.3-0.1,0.4c-0.1,0.2-0.1,0.3-0.2,0.4l0,0.1c-0.1,0.1-0.1,0,0-0.1c0.1-0.2,0.1-0.4,0.1-0.5c0,0-0.1,0.1-0.1,0.1
		c0-0.1,0.1-0.2,0.1-0.4c0.1-0.1,0.1-0.3,0.2-0.4c0.1-0.3,0.2-0.6,0.2-0.7c0.2-0.4,0.4-1.1,0.5-1.7c-0.1,0.1-0.1,0.3-0.2,0.5
		c0-0.1,0.1-0.5,0.2-0.7c0.1,0,0,0.1,0,0.2c0.3-0.6,0.5-1.4,0.8-2.3c-0.2,0.2,0.2-0.4,0.2-0.6C8.5,9,8.6,8.5,8.7,8.3
		C8.8,7.9,9,7.4,9.2,7c0.1-0.4,0.3-0.8,0.4-1.2c0,0.3-0.3,0.8-0.4,1.3C9.1,7.2,9.1,7.4,9,7.5c0.2,0,0.2-0.4,0.3-0.6
		C9.2,7,9.2,7.2,9.2,7.3c0.1-0.4,0.3-0.9,0.5-1.5C9.6,5.4,9.9,5,10.1,4.6c0-0.1,0-0.1,0-0.1c0-0.1,0-0.1,0-0.1
		c0,0.1-0.1,0.1-0.1,0.2c0,0,0.1-0.3,0.1-0.4c0,0,0,0.1,0,0.1c0.2-0.5,0.5-1.2,0.5-1.7c0.2-0.7,0.5-1.7,0.6-2.5c0.1,0.1,0,0.2,0,0.3
		c0.1-0.1,0.1-0.3,0.2-0.5c0,0.2,0.1,0,0.2-0.1C11.7-0.1,11.8,0,11.9,0c0,0.2-0.2,0.5-0.1,0.6c0.1,0,0.3-0.3,0.2-0.5
		c0.2-0.1,0.2-0.3,0.3-0.4c0.1,0,0.1,0.1,0.1,0.2c0.1-0.1,0.3-0.2,0.3-0.2c0.1,0.1,0.1,0.1,0.2,0.2c0,0.1,0,0.1,0,0.2
		c0.1,0.1,0.1-0.1,0.2-0.1c0.1,0,0.1,0.2,0.2,0.1c0,0.1-0.1,0.2,0,0.3c0.1,0,0.1-0.1,0.2-0.1c0.1,0.1,0.2,0.3,0.3,0.5
		c0.2-0.1,0-0.1,0-0.2c0-0.1,0,0,0,0c0.2,0,0-0.3,0.2-0.3C14,0,13.9,0.1,13.7,0c0.2-0.2,0.4,0,0.4,0.1c0,0.1-0.1,0.1-0.1,0.2
		c0.1-0.1,0.3-0.1,0.4-0.1c0,0,0,0.1,0,0.2c0.1-0.1,0.3,0.1,0.4-0.1C14.9,0.6,15,0.7,15,1c0.1,0,0.1-0.2,0.1-0.2
		c0,0,0.1,0.1,0.1,0.1c0-0.1,0-0.1,0-0.2c0,0.1,0.1,0.2,0.1,0.3C15.3,1,15.3,1,15.4,1.1l-0.1,0.3c-0.1,0,0-0.1,0-0.1
		c-0.2,0.2-0.2,0.8-0.4,0.9C15,2.1,15,1.8,15,1.7c-0.1,0.2-0.3,0.5-0.4,0.9c0.1,0.1,0.1,0.3,0.1,0.4c0.1-0.2,0-0.5,0-0.7
		c0.2,0.5,0.2,1.2,0.4,1.9c0.1-0.1,0-0.2,0-0.3c0,0,0,0.1,0,0.1c-0.1-0.1,0-0.2,0-0.3l-0.1-0.1C15,3.5,15,3,15.1,3.3
		C15,3,15,2.8,15,2.6c0,0,0.1,0,0.1,0c0-0.1,0-0.3-0.1-0.4c0.2,0.1,0.1,0.4,0.2,0.5c0.1,0,0-0.2,0-0.3c-0.1,0.1,0-0.2,0-0.3
		c0.1,0.1,0.1,0.3,0.1,0.4c0.1-0.1-0.2-0.6,0-0.7c0.1,0.5,0.2,1,0.4,1.8c0.1,0,0.1-0.1,0.1-0.2c0,0,0,0.1-0.1,0.1c0-0.1,0-0.2,0-0.2
		c0,0.1,0.1-0.1,0.1,0.2c0-0.2-0.1-0.4-0.1-0.7c0.1,0.1,0.1,0.3,0.2,0.4c0,0,0.1,0,0,0c0.1,0.2,0,0.1,0.1,0.4c0,0.1,0-0.1,0.1,0
		c0.1,0.3,0.2,0.4,0.2,0.7c0.1,0,0-0.1,0-0.1c0.1,0.1,0.1,0.2,0.1,0.4c0.1,0,0-0.2,0-0.2c0.2,0.3,0.2,0.7,0.3,1c0,0-0.1,0-0.1,0
		c0.1,0.3,0,0.2,0-0.1c-0.2,0,0,0.4,0,0.5c0-0.1-0.1-0.3-0.1-0.4c0,0,0.1,0,0,0c0.1,0.4,0.3,0.8,0.4,1.3c0.1,0.1,0,0.1,0,0.1
		c0.1,0.2,0.1,0.3,0.2,0.4c0,0.3-0.1-0.1-0.1-0.1c-0.1,0,0.1,0.4,0.1,0.5c0-0.1,0.1-0.1,0.1,0.1c0-0.1-0.1-0.2-0.1-0.3
		c0.2,0.2-0.1-0.2-0.1-0.3c0-0.1,0-0.2,0-0.3c-0.1-0.4,0.1,0.2,0.2,0.4c0.1,0.4,0.2,0.8,0.4,1c-0.1,0,0.2,0.9,0.1,0.7l-0.1-0.2
		c-0.1-0.2-0.1-0.3-0.2-0.5c-0.1,0.4,0.3,1.1,0.5,1.6c0-0.3-0.2-0.6-0.2-0.9c0.1,0.1,0.1,0.3,0.2,0.4c0-0.2-0.1-0.4-0.2-0.6
		c0.2,0.2,0.2,0.4,0.3,0.7C18,9,17.6,8.3,17.6,8c0,0,0,0.1,0,0.1c0.1,0,0-0.2,0-0.2c0,0,0,0,0,0.1c-0.1-0.2-0.1-0.4-0.2-0.5
		c0,0,0,0,0.1,0.1c-0.1-0.4-0.4-1-0.4-1.5c-0.1,0,0,0.1,0,0.1C17,6,17,6,17,5.9c-0.1,0.2,0.2,0.6,0.1,0.8c-0.1-0.6-0.3-1-0.3-1.5
		c0.1,0,0,0.1,0.1,0.2c0,0,0-0.1,0.1,0c0-0.3-0.1-0.6-0.1-0.9c0-0.1,0.1,0.2,0.1,0.3c-0.1-0.3-0.1-0.8-0.3-1.1c0,0,0,0.1,0.1,0.1
		c-0.1-0.3-0.1-0.6-0.1-1c0.1,0.3,0.2,0.6,0.3,0.9c0.1,0.3,0.2,0.6,0.2,1c0,0,0.1,0,0,0c0.2,0.3,0.3,0.8,0.3,1.2c-0.1,0-0.1,0-0.1,0
		l0,0.2c0,0-0.1,0-0.1-0.1c0.2,1,0.6,2,0.9,3.1c-0.1-0.7-0.4-1.2-0.4-1.8l0-0.1c0-0.1,0,0,0,0.1c0.1,0.2,0.1,0.4,0.2,0.5
		c0.1,0,0-0.1,0-0.1C17.8,7.6,18,7.9,18,8.2c0.1,0.3,0.1,0.6,0.2,0.7c0.1,0.4,0.3,1,0.4,1.6c0-0.2,0-0.3-0.1-0.5
		c0.1,0.1,0.2,0.5,0.2,0.7c-0.1,0-0.1-0.1-0.1-0.1c0,0.3,0.1,0.6,0.2,0.9c0.3,0,0.7-0.1,1-0.1c0,0.1-0.1,0-0.1,0.1
		c0.1,0.1,0.1-0.1,0.3,0c-0.1,0.1,0,0.1,0.1,0.2c0,0.1,0,0.3-0.1,0.3c-0.1,0-0.3,0-0.3,0.1c0,0.1,0.2,0.2,0.3,0.1
		c0.1,0.1,0.2,0,0.2,0.2c0,0.1-0.1,0.1-0.1,0.1c0.1,0.1,0.1,0.2,0.1,0.2c-0.1,0.1-0.1,0.1-0.1,0.2c0,0,0,0.1-0.1,0
		c-0.1,0.1,0.1,0.1,0.1,0.1c0,0.1-0.1,0.1,0,0.2c0,0-0.1,0-0.1,0.1c0,0.1,0.1,0.1,0.1,0.2c-0.1,0.1-0.1,0.3-0.2,0.3
		c0.1,0.1,0.1,0,0.1,0c0.1,0,0,0,0,0c0,0.1,0.2-0.1,0.2,0.1c0.1-0.1,0-0.2,0-0.3c0.1,0.1,0.1,0.3,0,0.4c0,0-0.1,0-0.1,0
		c0.1,0.1,0.1,0.2,0.1,0.3c0,0,0,0-0.1,0.1c0.1,0.1,0,0.3,0.1,0.3c-0.1,0.1-0.2,0.2-0.2,0.3c0,0.1,0.1,0,0.1,0.1
		c0,0.1-0.1,0.2-0.1,0.3h-0.1c0,0,0,0,0.1,0c-0.1,0-0.1,0-0.2,0c0.2,0.6,0.3,1.2,0.4,1.6c-0.2-0.2-0.2-0.8-0.4-1.2
		c0-0.1-0.1-0.3-0.1-0.4c0,0,0,0-0.1,0c-0.1,0.1,0.1,0.4,0.1,0.5c0-0.1,0-0.2,0-0.3c0.1,0.4,0.2,0.9,0.4,1.4
		c0.3,0.2,0.1,0.7,0.2,1.1c0,0.1,0.1,0,0.1,0c0,0.1,0,0.1,0.1,0.1c0-0.1,0-0.1-0.1-0.2c0.1,0,0.1,0.2,0.2,0.4c-0.1,0-0.1,0-0.1-0.1
		c0.2,0.5,0.2,1.2,0.5,1.5c0.2,0.7,0.5,1.6,0.9,2.3c-0.1-0.1-0.1-0.2-0.1-0.2C21.8,21.8,21.9,22,22,22.1z M4.9,22.4
		c0,0.1,0-0.3-0.1-0.2c0-0.1,0.1-0.1,0.1-0.2C4.9,22.1,4.9,22.3,4.9,22.4z M5,20.2c0-0.1,0.1-0.3,0.1-0.5C5.1,19.8,5,20.1,5,20.2z
		 M5,18.6c0-0.1,0.1-0.2,0.1-0.3C5.2,18.4,5,18.5,5,18.6z M5.4,19.1c0,0.5-0.3,0.9-0.4,1.5c0-0.4,0.1-1,0.3-1.3c-0.1,0.2,0,0,0-0.1
		c-0.1,0.2-0.1,0.4-0.2,0.6c0-0.2,0.1-0.5,0.2-0.8c0.2-0.1,0.2,0.1,0.3-0.1C5.5,18.9,5.4,19,5.4,19.1z M5.4,21.6
		c0,0.3,0,0.3-0.1,0.6C5.3,22.1,5.3,21.6,5.4,21.6z M5.5,23.2c0.1,0.1,0.1,0.3,0.2,0.4C5.6,23.5,5.6,23.4,5.5,23.2z M6,19.2
		c0,0.1-0.1,0.1-0.1,0.2C6,19.5,6,19.3,6,19.4C6,19.3,6.1,19.2,6,19.2z M5.9,16.4c0,0,0-0.2,0.1-0.3C6.1,16.1,6,16.2,5.9,16.4z
		 M6.1,16.2c0-0.1,0-0.2,0.1-0.2C6.3,16,6.1,16.1,6.1,16.2z M6.3,17.5c0,0.2-0.2,0.3-0.2,0.5C6.3,17.9,6.4,17.4,6.3,17.5z M6.2,22
		 M6.3,22.1c0,0.1,0,0.2,0,0.3C6.2,22.4,6.2,22.1,6.3,22.1z M6.4,16.8c0,0.1,0,0.2-0.1,0.4C6.2,17.1,6.4,16.8,6.4,16.8z M6.5,17.9
		c-0.1,0.1-0.2,0.3-0.2,0.4C6.4,18.2,6.5,17.9,6.5,17.9z M6.4,21.6c0,0.3,0,0.6,0,0.8c0-0.2,0-0.3,0-0.4C6.4,21.9,6.4,21.7,6.4,21.6
		z M6.5,21.3c0,0.1,0,0.2,0,0.3C6.4,21.5,6.5,21.3,6.5,21.3z M6.5,16.2c0,0,0,0.1,0,0.2C6.4,16.3,6.5,16.2,6.5,16.2z M7.5,15
		c-0.1,0,0.1-0.1-0.1-0.1c-0.1,0.1-0.1,0.3-0.1,0.3c-0.1,0,0.1-0.2,0-0.2c-0.1,0.2-0.2,0.5,0,0.3c-0.1,0.2-0.2,0.5-0.3,0.7
		c0-0.1,0.1-0.2,0.1-0.3c0-0.1,0.1-0.2,0-0.1L7,16.2c0,0-0.1,0-0.1,0c0,0.1-0.1,0.2-0.1,0.4c-0.1,0.1-0.3,0.6-0.2,0.4
		c0.1-0.1,0.1-0.3,0.2-0.3c0,0.1-0.2,0.4-0.2,0.5c0.1,0,0.1,0,0.1,0C7.2,16.4,7.3,15.8,7.5,15z M7,12.7C7,13.2,6.8,13.6,6.6,14
		C6.7,13.6,6.9,13.1,7,12.7z M6.9,20.9c-0.1,0.1-0.1,0.2-0.1,0.4C6.8,21.3,6.8,20.9,6.9,20.9z M7,22.1c0,0.1,0.1,0.3,0,0.3
		C7,22.2,6.9,22.2,7,22.1z M7.1,21.3C7,21.6,7.1,21.7,7,21.9c0-0.2,0.1-0.4,0.1-0.5C7,21.4,7,21.3,7.1,21.3z M7,20.6 M7.2,13.6
		c0,0.1-0.2,0.5-0.2,0.6C7.1,13.9,7.2,13.9,7.2,13.6z M7.2,18.5C7.1,18.6,7,18.8,7,18.8C7.1,18.8,7.1,18.6,7.2,18.5z M7,19.7
		c0-0.2,0.2-0.3,0.1-0.3C7,19.5,7,19.7,7,19.7z M7.2,20.9c0,0.1-0.1,0.4-0.2,0.3c-0.1,0,0.1-0.2,0.1-0.3c0.1-0.1,0.1,0.1,0,0.2
		C7.2,21,7.1,20.9,7.2,20.9C7.2,20.9,7.2,20.9,7.2,20.9z M7,21.2C7,21.3,7,21.3,7,21.2C7,21.3,7,21.3,7,21.2z M7.2,17.2
		c0.1-0.1,0.3-0.3,0.1-0.3C7.3,17,7.2,17.1,7.2,17.2z M7.9,15.5c-0.3,0.6-0.5,1.3-0.7,1.8c-0.1,0,0-0.1,0-0.1c0,0.1-0.1,0.2-0.1,0.2
		c0.2-0.2,0,0.2,0,0.2C7.5,17,7.8,16,7.9,15.5z M7.3,22L7.3,22c-0.1,0-0.1-0.1-0.1-0.1C7.4,21.9,7.3,22,7.3,22z M7.7,16.7
		c-0.1,0.3-0.4,0.8-0.4,1.1C7.5,17.4,7.6,17,7.7,16.7z M7.5,12.5c-0.1,0.1-0.2,0.5-0.2,0.6C7.4,12.9,7.4,12.7,7.5,12.5z M7.6,12.6
		c-0.1,0.2-0.2,0.5-0.2,0.7C7.4,13,7.6,12.7,7.6,12.6z M7.4,18.1c0-0.1,0.1-0.4,0.1-0.5C7.6,17.8,7.5,18,7.4,18.1z M7.5,18
		c0,0.1,0,0.3-0.1,0.4C7.4,18.2,7.5,18.1,7.5,18z M8,11.8c-0.2,0.4-0.3,0.8-0.4,1.1C7.8,12.5,7.9,12.3,8,11.8z M7.7,22.3
		c-0.1-0.1-0.1-0.2,0-0.3c0-0.1,0-0.3,0-0.4C7.7,21.8,7.7,22,7.7,22.3z M7.7,17.7C7.7,17.7,7.7,17.7,7.7,17.7
		C7.8,17.7,7.8,17.7,7.7,17.7c0,0.1,0,0.2-0.1,0.2L7.7,17.7z M8,11.4C8,11.3,8.1,11,8,11.2c-0.1,0.3-0.2,0.5-0.2,0.6
		c-0.1,0-0.2,0.3-0.2,0.3C7.8,11.9,7.9,11.7,8,11.4C8,11.4,8,11.5,8,11.4z M7.7,12c0.1-0.3,0.2-0.4,0.2-0.6C7.8,11.6,7.7,12,7.7,12z
		 M7.8,23.3c-0.1,0,0-0.2-0.1-0.2C7.8,23,7.8,23.2,7.8,23.3z M8.3,16.2c-0.2,0.1-0.1,0.3-0.2,0.4c0,0,0-0.1,0-0.1
		C8,16.8,7.9,17,7.8,17.2c0.1,0,0.1,0,0.1,0C8,17,8,17,8,16.8C8.2,16.8,8.2,16.4,8.3,16.2z M7.9,10C7.9,9.9,8,9.8,8,9.7
		C8.1,9.8,7.9,9.9,7.9,10z M7.9,17.8c0-0.1,0-0.1,0.1-0.2c0,0,0-0.1,0,0C8,17.9,7.8,18.2,7.9,17.8z M8.2,18.6c0,0.2-0.2,0.3-0.1,0.2
		C8.1,19,7.9,19,8,19.2C8.1,19.1,8.2,18.8,8.2,18.6z M8.2,17.3c0.1,0.1-0.1,0.3-0.1,0.4C8,17.7,8.2,17.4,8.2,17.3z M8.2,9.8
		C8.2,9.8,8,10.2,8.1,10.1C8.1,10,8.3,9.9,8.2,9.8z M8.6,16c-0.1,0.5-0.3,0.9-0.5,1.5C8.2,17,8.5,16.3,8.6,16z M8.2,20.8
		c0,0.1-0.1,0.2-0.1,0.3C8.1,21.1,8.2,20.9,8.2,20.8z M8.3,18.2c-0.1,0.1-0.2,0.3-0.2,0.4c0-0.1,0.1,0,0.2-0.2
		C8.3,18.4,8.4,18.2,8.3,18.2z M8.2,20.2c0.1-0.1,0.1-0.1,0.1-0.2C8.4,20,8.3,20.3,8.2,20.2z M8.3,21.1c0-0.2,0.1-0.4,0.1-0.6
		C8.5,20.6,8.3,20.9,8.3,21.1z M8.4,18.7c0.1-0.1,0.2-0.4,0.1-0.4c0,0.2-0.1,0.4-0.1,0.5c0.5-1.3,0.8-2.2,1.2-3.6
		c-0.2,0.4-0.3,1-0.5,1.3c0.1-0.1,0.1-0.2,0.1-0.3c-0.1,0.2-0.2,0.6-0.3,0.8C9,16.7,9,16.6,9.1,16.4C9,16.5,9,16.6,8.8,16.6
		c0,0.4-0.3,0.8-0.3,1.1c0,0,0-0.1,0.1-0.1c-0.1,0.1-0.2,0.3-0.2,0.4c0.1-0.2,0.2-0.4,0.4-0.7c-0.1,0.3-0.2,0.5-0.2,0.6
		c0,0,0-0.1,0.1-0.1c-0.1,0.2,0,0.2,0,0.3c0.1-0.1,0.1-0.3,0.2-0.3C8.6,18.2,8.5,18.5,8.4,18.7z M10.1,15.2
		C10.1,15.2,10.1,15.2,10.1,15.2c-0.1,0.3-0.2,0.5-0.3,0.6c0-0.3,0.1-0.4,0.2-0.7c-0.1,0-0.1,0-0.1,0c0,0.1-0.1,0.3-0.1,0.3
		c0-0.1,0-0.2,0.1-0.3c0,0,0,0-0.1,0c0,0.2-0.1,0.3-0.1,0.4c0,0.2-0.1,0.3-0.1,0.4c-0.1,0.3-0.2,0.6-0.3,0.9
		c-0.2,0.6-0.5,1.2-0.6,1.7c0.1-0.2,0.2-0.5,0.3-0.5c-0.2,0.5-0.4,0.8-0.5,1.2c0,0,0-0.1,0.1-0.1c0.1,0-0.1,0.2,0.1,0.2
		c0.1-0.1,0-0.3,0.1-0.2c0.1,0.1-0.1,0.3-0.1,0.4c0.4-1,0.8-2.3,1.2-3.3c0-0.2,0.1-0.4,0.2-0.7C10,15.5,10.1,15.3,10.1,15.2z
		 M8.5,8.6 M8.7,9.4c0,0.1-0.2,0.3-0.1,0.3c0.1-0.1,0.1,0,0.1,0C8.7,9.6,8.7,9.5,8.7,9.4z M8.8,16.7c0-0.1-0.1,0.3-0.2,0.4
		c0.1,0,0,0.1,0.1,0.1L8.8,16.7z M8.8,20.1c-0.1,0.2-0.1,0.3-0.2,0.4C8.7,20.4,8.7,20.1,8.8,20.1z M8.9,18.3C9,18.4,8.8,18.8,8.7,19
		c0,0,0.1-0.2-0.1-0.2C8.8,18.7,8.8,18.4,8.9,18.3z M8.9,8.8C9,8.8,9,8.7,8.9,8.8C9.1,8.6,9,8.5,9.1,8.5c0,0,0.1-0.1,0-0.1
		c0,0.1,0,0,0,0C9,8.7,8.7,9,8.7,9.2c0-0.1,0.1-0.2,0.1-0.1C8.9,9,8.8,8.9,8.9,8.8z M8.9,19.1c-0.1,0-0.2,0.4-0.1,0.3
		C8.8,19.4,9.1,18.7,8.9,19.1z M9,19.8c0,0.1-0.1,0.4-0.2,0.5C8.9,20.1,8.9,20,9,19.8z M8.9,17.3C8.8,17.3,8.9,17.1,9,17
		C9.1,16.8,8.8,17.3,8.9,17.3z M8.9,17.3c0-0.1,0.1-0.3,0.1-0.4C9.1,17,9,17.2,8.9,17.3z M9,19.7c0.1-0.4,0.3-1,0.5-1.4
		C9.3,18.8,9.1,19.5,9,19.7z M9.2,17.2c0.1,0.1-0.1,0.3-0.1,0.4C9,17.5,9.1,17.4,9.2,17.2z M9.3,18c-0.1,0.2-0.2,0.3-0.2,0.5
		C9.2,18.4,9.3,18.1,9.3,18z M9.2,9C9.2,9,9.2,9,9.2,9c0.2-0.3,0.2-0.5,0.1-0.3c0,0,0,0.1-0.1,0.1c0-0.1,0-0.1,0-0.1
		C9.1,8.9,9.2,9,9.2,9z M9.2,7.9C9.2,7.8,9.2,7.9,9.2,7.9c0.1-0.1,0.2,0,0.2,0c0.2-0.1,0.2-0.8,0.3-0.6c0-0.1,0.2-0.3,0.1-0.2
		c0,0,0,0.1-0.1,0.1c0.1-0.3,0.2-0.6,0.1-0.8L9.7,6.4c0.2,0,0,0.3,0,0.3c0,0,0-0.1,0-0.1c-0.1,0.1,0,0.7-0.2,0.5
		c0,0.1,0.1,0.1,0,0.2c0,0,0-0.1,0-0.1c0,0.1-0.1,0.2-0.1,0.3c0.1,0,0.1,0.1,0.1,0.1c-0.1,0-0.1,0.1-0.1,0.1
		C9.2,7.7,9.2,7.8,9.2,7.9z M9.4,16.9c0.1,0.1-0.1,0.4-0.2,0.4C9.2,17.2,9.4,17,9.4,16.9z M9.3,5.8c0.1-0.3,0.1-0.4,0.2-0.6
		c0,0.1,0,0.2,0,0.2C9.4,5.5,9.4,5.9,9.3,5.8z M9.4,7.4c0-0.2,0.1-0.4,0.1-0.5C9.5,7,9.3,7.3,9.4,7.4z M9.6,17.1
		c0,0.1-0.1,0.1-0.1,0.2c0,0-0.2,0.5-0.1,0.4C9.5,17.5,9.6,17.3,9.6,17.1z M9.6,6.1c0,0.1-0.1,0.1-0.1,0.2C9.3,6.7,9.6,6.3,9.6,6.1z
		 M9.6,18.3c0,0.1-0.1,0.2-0.1,0.3C9.5,18.5,9.6,18.4,9.6,18.3z M9.9,16.4c-0.1,0.2-0.1,0.5-0.2,0.6c0-0.1,0-0.2,0-0.2
		c0,0.1-0.2,0.4-0.1,0.3c0-0.2,0.1,0,0.1,0C9.7,16.8,9.8,16.7,9.9,16.4z M9.8,7.3c0.2-0.4-0.4,0.5-0.1,0.5C9.7,7.6,9.9,7.2,9.9,7
		C9.9,7.1,9.9,7.3,9.8,7.3z M9.8,15.5c0,0.1-0.1,0.2-0.1,0.4C9.6,15.9,9.7,15.5,9.8,15.5z M9.7,4.8c0-0.1,0.1-0.3,0.1-0.5
		C9.9,4.5,9.7,4.7,9.7,4.8z M9.7,17.2c0-0.2,0.2-0.4,0.2-0.6C9.9,16.7,9.8,17,9.7,17.2z M11.4,2.1c-0.2,0.5-0.3,1-0.4,1.4
		C10.8,4,10.7,4.5,10.5,5c0-0.1,0.1-0.1,0.1-0.2c-0.2,0.2-0.3,0.6-0.4,0.9c0-0.1,0.1-0.2,0.1-0.2c-0.1,0.3-0.1,0.6-0.3,0.9
		c0.1-0.3,0.2-0.4,0.2-0.7c-0.1,0.1-0.2,0.4-0.3,0.7c0.1,0.1,0.1-0.2,0.2-0.2C10,6.6,9.9,6.8,9.8,7.1C9.9,7,9.9,6.9,10,6.7
		c0,0,0,0,0.1,0.1l0.3-0.9c0.1,0.1,0.1-0.2,0.2-0.2c0,0.1-0.1,0.2-0.1,0.3c0.1-0.1,0.1-0.1,0.1-0.2c0,0.2,0,0.3-0.1,0.5
		c0,0.1-0.1,0.3,0,0.2c0.1-0.4,0.2-0.7,0.3-1.1c-0.1-0.1-0.1,0.3-0.2,0.4c0.1-0.3,0.2-0.6,0.2-0.8c0,0.1,0,0-0.1,0
		c-0.1,0.2-0.1,0.3-0.2,0.5c0.2-0.6,0.4-1.3,0.7-1.9c0.2-0.7,0.4-1.3,0.4-1.8c0,0.1,0,0.2-0.1,0.2c0.1-0.2,0.1-0.3,0.1-0.6
		C11.6,1.6,11.5,1.8,11.4,2.1C11.4,2.1,11.4,2.1,11.4,2.1z M9.8,15.1C9.8,15.1,9.8,15.1,9.8,15.1L9.8,15.1z M10,5.9
		c0,0.1-0.2,0.3-0.2,0.5l0-0.1c0.1,0-0.1,0.2,0,0.1c0.1-0.3,0.2-0.6,0.4-0.8c0-0.1-0.1-0.1-0.1-0.1c0.1-0.3,0.2-0.6,0.3-0.9
		c-0.2,0.3-0.3,0.4-0.4,0.7c0,0.1,0,0.2,0.1,0.1c0,0.1-0.1,0.1-0.1,0.2C10.2,5.5,10.1,5.8,10,5.9c0-0.1,0-0.2-0.1-0.2
		c0,0.1-0.1,0.1,0,0.2C9.9,5.9,9.9,5.9,10,5.9z M9.9,15c0.1,0,0.1,0,0.1,0c0-0.1,0-0.2,0-0.3C10.1,14.8,10,14.9,9.9,15z M10.1,15.7
		c0,0.1-0.1,0.2-0.1,0.2C10.1,15.9,10.1,15.8,10.1,15.7z M10.1,15L10.1,15L10.1,15z M10.1,15C10.1,15,10.1,15,10.1,15
		C10.1,15,10.1,15,10.1,15z M10.3,4.9c0.1-0.2,0.2-0.5,0.2-0.7C10.4,4.4,10.3,4.7,10.3,4.9z M10.3,15.5
		C10.3,15.5,10.3,15.5,10.3,15.5L10.3,15.5C10.3,15.5,10.3,15.5,10.3,15.5L10.3,15.5L10.3,15.5z M10.3,15.4
		C10.3,15.4,10.3,15.4,10.3,15.4c0.1-0.1,0.1-0.1,0.1-0.2c0,0,0,0,0,0C10.3,15.2,10.3,15.3,10.3,15.4z M10.4,15.5
		C10.5,15.5,10.5,15.4,10.4,15.5L10.4,15.5C10.4,15.4,10.4,15.5,10.4,15.5C10.4,15.5,10.4,15.5,10.4,15.5
		C10.4,15.5,10.4,15.5,10.4,15.5z M10.5,5.5c-0.1,0-0.1,0.3-0.2,0.4C10.4,5.8,10.4,5.4,10.5,5.5z M10.4,4.4c0,0.1,0.1,0.1,0.1,0.2
		c0-0.1,0.1-0.2,0.1-0.3c0.1-0.2,0.2-0.2,0.2-0.4c0.1-0.2,0-0.3,0.1-0.5c0,0-0.1-0.2,0-0.3c0,0.1-0.1,0.1,0,0.2C11,3.1,11,3,11,3
		C11,3.1,11,3,11,3c-0.2,0.4-0.1,0.8-0.4,1.3C10.6,4,10.5,4.4,10.4,4.4z M10.5,5.1c0-0.1,0.1-0.2,0.1-0.2
		C10.6,5.1,10.3,5.6,10.5,5.1z M10.8,15.4c-0.1-0.1-0.2,0-0.2-0.1c0,0.1,0,0.1,0,0.1h0C10.6,15.4,10.7,15.5,10.8,15.4z M10.8,15.3
		c-0.1,0-0.1,0-0.2,0c0-0.1,0.1-0.1,0.1-0.2c0,0-0.1,0-0.1,0c0,0,0,0.1,0,0.1c0,0,0.1,0,0.1,0c0,0-0.1,0.1-0.1,0c0,0,0,0,0,0
		c0,0.1,0,0.1-0.1,0.2C10.6,15.3,10.7,15.3,10.8,15.3z M10.5,2.9 M10.8,15.6c-0.1,0-0.1,0-0.3,0C10.6,15.6,10.8,15.6,10.8,15.6z
		 M11.2,3.2c-0.1,0.5-0.3,1-0.5,1.6c-0.1-0.1,0-0.2,0.1-0.3c-0.2,0,0.1-0.3,0.2-0.5C11.1,3.6,11,3.4,11.2,3.2z M10.7,14.9
		c0.1,0,0.2-0.1,0.3-0.1C10.9,14.8,10.8,14.8,10.7,14.9C10.7,14.9,10.7,14.9,10.7,14.9z M10.7,3.6c0-0.2,0.1-0.4,0.1-0.5
		C10.8,3.3,10.7,3.5,10.7,3.6z M10.7,15.7c0.1,0,0.2,0,0.2,0C10.9,15.7,10.8,15.7,10.7,15.7z M10.8,12.5
		C10.8,12.5,10.8,12.5,10.8,12.5L10.8,12.5z M10.9,14.5L10.9,14.5L10.9,14.5z M10.9,2.9c0-0.1,0.1-0.1,0.1-0.2
		C10.9,2.8,10.8,2.9,10.9,2.9z M11.3,13.7c-0.1,0.1-0.2,0.1-0.3,0.1c0,0.1,0,0.1,0,0.1c0.1,0,0.1,0,0.2,0.1c0.1-0.1,0.2-0.1,0.3,0
		c-0.1,0.1-0.2,0-0.3,0.1c0,0,0.1,0,0.1,0c-0.1,0.1-0.2,0.1-0.3,0.1c0,0,0,0,0,0c0,0,0,0,0,0c0,0,0,0-0.1,0c0,0,0,0,0,0c0,0,0,0,0,0
		c0,0.1,0,0.1,0,0.1v0c0,0,0,0,0.1,0c0,0,0,0,0,0v0c0.1,0,0.2,0,0.2,0c0,0.1-0.1,0-0.1,0.1c0,0,0.1,0,0.1,0.1c0,0-0.2,0-0.2,0.1
		c0.5,0,0.9-0.1,1.5-0.2c-0.1,0-0.2,0-0.3,0c0.1-0.1,0.1,0,0.2-0.1c-0.2,0-0.3,0-0.4,0c0,0.1,0.1,0,0.1,0.1
		c-0.2,0.1-0.5,0.1-0.7,0.1c0.1,0,0.3,0,0.4-0.1c-0.1,0-0.2,0-0.3,0c0,0,0.2-0.1,0.1-0.1c0.2-0.1,0.4-0.2,0.5-0.1v0.1
		c0.1,0,0.1-0.1,0.2-0.1c0.2-0.1,0.4-0.1,0.6-0.1c0-0.1-0.2,0.1-0.3-0.1c0,0,0.2,0,0.3-0.1c-0.2,0-0.3,0-0.5,0c0,0,0,0,0.1,0
		c-0.1-0.1-0.4,0.1-0.6,0c0,0,0-0.1,0.1-0.1c-0.2-0.1-0.2,0-0.4,0c0.1-0.1,0.3-0.1,0.5-0.2c0,0,0,0,0,0c0.2,0,0.3-0.1,0.4-0.1
		c0,0,0,0,0,0c0.1-0.1,0.2,0,0.3-0.1c-0.2,0-0.3,0-0.5,0.1c0,0,0,0,0.1-0.1C11.9,13.6,11.5,13.6,11.3,13.7
		C11.3,13.7,11.3,13.7,11.3,13.7z M13.3,14.8c-0.1,0-0.1,0-0.2,0c0-0.1-0.1,0-0.1-0.1c-0.5,0.1-1.2,0.1-1.6,0.2
		c0.1,0,0.2-0.1,0.3,0.1c-0.2,0.1-0.4,0-0.6,0v0c0,0.1-0.1,0-0.1,0.1c0,0,0.1-0.1,0.1,0c-0.1,0.1-0.2,0-0.2,0.1
		c0.5,0,1.1-0.2,1.6-0.2c0.1-0.1,0.5-0.1,0.6-0.2c-0.2,0-0.3,0.1-0.4,0C13,14.8,13.1,14.9,13.3,14.8z M11,13.9
		C11,13.9,11,13.9,11,13.9C11,13.9,11,13.9,11,13.9C11,13.9,11,13.9,11,13.9z M11.2,14.6c-0.1,0.1-0.2-0.1-0.1,0
		c-0.1,0.1-0.1-0.1-0.2,0C11,14.7,11.2,14.6,11.2,14.6z M11.7,15.6c-0.2,0.1-0.5,0.1-0.7,0.1C11.2,15.6,11.5,15.6,11.7,15.6z
		 M11,4.7c0.1-0.1,0.2-0.3,0.2-0.4C11,4.4,11.1,4.6,11,4.7z M11.1,2.7c0.1-0.2,0.2-0.6,0.2-0.8C11.2,2,11,2.7,11.1,2.7z M11.2,15.3
		c0,0-0.2,0-0.1,0.1C11.1,15.4,11.5,15.4,11.2,15.3z M11.1,4C11.1,4,11.1,4,11.1,4C11.3,3.6,11.2,3.7,11.1,4z M11.1,13.9
		c0.1-0.1,0.1-0.1,0.2,0C11.3,13.9,11.2,13.9,11.1,13.9z M11.4,9.7c-0.2,0.2-0.1,0.4-0.2,0.6C11.3,10.1,11.4,9.7,11.4,9.7z
		 M11.2,3.8c0-0.2,0.3-0.3,0.2-0.4C11.3,3.4,11.1,3.7,11.2,3.8z M11.3,8.4C11.4,8,11.4,8.1,11.3,8.4C11.2,8.4,11.2,8.5,11.3,8.4
		C11.2,8.5,11.2,8.4,11.3,8.4z M11.6,3.2C11.6,3.3,11.6,3.3,11.6,3.2L11.6,3.2C11.6,3.2,11.6,3.2,11.6,3.2c-0.2,0.3-0.2,0.5-0.4,0.9
		C11.4,4,11.6,3.3,11.6,3.2z M11.2,13.8c0.1-0.1,0.2-0.1,0.2-0.1C11.4,13.8,11.3,13.8,11.2,13.8z M11.2,14.9
		c0.7-0.1,1.1-0.2,1.7-0.3c-0.2,0-0.4,0.1-0.6,0.1c0.1,0,0.1,0,0.2-0.1c-0.2,0-0.3,0.1-0.4,0c0.1,0,0.2-0.1,0.3-0.1
		c-0.1-0.1-0.1,0-0.1-0.1c-0.2,0.1-0.4,0-0.6,0.1c0,0,0,0,0,0c0,0-0.1-0.1-0.2,0c0.1,0,0.3,0,0.4,0c-0.1,0.1-0.2,0-0.3,0.1
		c0,0,0,0,0.1,0c-0.1,0-0.1,0.1-0.2,0.1c0.1,0,0.2,0,0.2,0.1C11.6,14.8,11.4,14.8,11.2,14.9c0.1-0.1,0.3-0.1,0.2-0.1
		C11.4,14.8,11.2,14.8,11.2,14.9z M11.2,14.6c0.1,0,0,0.1,0.1,0.1c0-0.1,0.1,0,0.1-0.1C11.4,14.5,11.3,14.5,11.2,14.6z M11.4,12.4
		C11.3,12.4,11.3,12.4,11.4,12.4c-0.1,0.1-0.1,0.1-0.1,0.2c0,0,0,0,0.1,0c0,0,0-0.1,0-0.1C11.3,12.4,11.3,12.4,11.4,12.4z
		 M11.6,15.1c0,0.1-0.2,0.1-0.3,0.1c0,0,0.1,0,0.1-0.1C11.4,15.1,11.5,15,11.6,15.1z M11.6,8L11.6,8c-0.2,0.2-0.3,0.5-0.2,0.6
		C11.3,8.5,11.5,8.3,11.6,8z M11.3,13.6c0.2,0,0.4,0,0.5-0.1C11.8,13.5,11.5,13.5,11.3,13.6z M11.4,1.6c-0.1,0,0.1-0.2,0-0.1
		C11.3,1.5,11.3,1.6,11.4,1.6z M12.1,12.2C12.1,12.1,12.1,12.1,12.1,12.2c-0.1-0.1-0.4,0-0.6,0c0,0,0,0.1,0,0.1c0.1,0,0.2,0,0.2,0.1
		c-0.1,0-0.2,0-0.2,0c0,0,0,0.1,0,0.1c0.1,0,0.1,0,0.1,0c0,0-0.1,0.1-0.1,0.1c0,0,0,0.1,0,0.1c0.1,0,0.2,0,0.3,0c0,0,0,0.1,0.1,0.1
		c0.1,0,0.1,0,0.2,0c0.1,0.1-0.1,0-0.1,0c0,0.1,0.2,0,0.3,0c0,0,0,0,0.1,0c-0.1-0.1-0.1,0-0.2,0c0.1-0.1-0.1,0-0.2,0
		c0-0.1-0.1,0-0.2-0.1c-0.2,0,0.1,0,0.2-0.1c0.2,0,0.4,0,0.6-0.1c0,0.1,0.4,0,0.3,0l-0.1,0c-0.1,0-0.2,0-0.3,0.1
		c0.2,0.1,0.5-0.1,0.8-0.1c-0.1,0-0.3,0.1-0.4,0c0-0.1,0.2,0,0.2-0.1c-0.1,0-0.2,0-0.3,0c0.1-0.2,0.2,0,0.3-0.1
		c-0.2-0.1-0.5,0.1-0.7,0c0,0,0,0,0,0c0-0.1-0.1,0-0.1,0c0,0.1,0,0.1,0,0.1C12.3,12.2,12.1,12.1,12.1,12.2z M11.6,12.7
		c0,0-0.2,0-0.3,0.1c0,0,0,0.1,0,0.1c0.5,0,0.8-0.1,1.2-0.2c0-0.1,0.1,0,0.1-0.1c-0.1,0-0.1,0-0.2,0c0-0.1,0.1,0,0.1-0.1
		c-0.1,0-0.3,0-0.2,0.1c-0.1,0-0.3,0.1-0.4,0c0.1,0,0.1,0,0.2-0.1c0,0,0.1,0,0.1,0l-0.4,0.1c0-0.1,0-0.1,0-0.1
		c-0.1,0-0.1,0.1-0.2,0.1c-0.1,0-0.3,0-0.2,0.1C11.5,12.7,11.6,12.6,11.6,12.7z M11.4,13.4c0.3,0,0.8-0.1,1.1-0.1
		c-0.3,0-0.7,0.1-0.9,0.1c0,0,0,0,0-0.1C11.6,13.3,11.5,13.3,11.4,13.4C11.6,13.4,11.4,13.4,11.4,13.4z M11.5,14.1c0,0,0.1,0,0.1,0
		c0,0,0,0,0,0C11.5,14.2,11.3,14.1,11.5,14.1z M11.4,2.3c0,0,0-0.1,0.1-0.1c0,0,0-0.1,0.1-0.1c-0.1,0-0.1,0-0.1-0.1
		c0.1,0,0.1,0.1,0.1,0.1c0,0,0-0.1,0.1-0.1c0,0-0.1,0.2-0.1,0.3C11.6,2,11.5,2.2,11.4,2.3z M11.4,2.3 M11.4,13.9L11.4,13.9
		C11.5,13.9,11.5,13.9,11.4,13.9C11.5,13.9,11.5,13.9,11.4,13.9C11.5,13.9,11.4,13.9,11.4,13.9z M14.8,11.6L14.8,11.6
		c0-0.1,0-0.1,0-0.1c0,0,0,0,0,0c0,0,0,0,0,0c-0.1-0.3-0.2-0.6-0.2-0.9c-0.2-0.7-0.4-1.5-0.6-2.2l0-0.1l0-0.1
		c0.1,0.1,0.1,0.3,0.2,0.5c0.1,0.1,0.2,0.4,0.2,0.6c0.1-0.1-0.1-0.3-0.1-0.4c0.1,0.1,0.2,0.4,0.3,0.7c0-0.3-0.2-0.5-0.3-0.9
		c0,0,0,0.1,0,0.1c-0.1,0,0-0.1,0-0.1c-0.2-0.9-0.5-1.8-0.8-2.6c0,0.1-0.1,0.2-0.1,0.3c0,0.1,0,0.1,0.1,0.2c0-0.1,0.1-0.1,0.1-0.2
		c0,0.1-0.1,0.2-0.1,0.2c0,0,0,0,0,0s0,0,0,0c-0.2,0.7-0.4,1.2-0.6,1.7c0,0-0.1,0.1-0.1,0.2c-0.1,0.1-0.1,0.4-0.1,0.5
		c0,0.1,0.1,0,0,0.1c-0.2,0.2-0.2,0.5-0.3,0.9c0.1-0.1,0.1-0.3,0.2-0.3c-0.2,0.2-0.2,0.6-0.4,0.7c0.1,0.2-0.1,0.4-0.2,0.7
		c0,0.1-0.3,0.6-0.4,1c0,0,0.1,0,0.1,0c0,0.1-0.1,0.1-0.1,0.1c0,0.1-0.1,0.1-0.1,0.2c0.4,0,0.9-0.1,1.4-0.2c-0.4,0-0.6,0.1-1,0h0
		c-0.1,0,0,0,0,0c0.1,0,0.2,0,0.3-0.1c0,0-0.1,0-0.1,0c0.2-0.1,0.7-0.1,0.8-0.1c0.2,0,0.5-0.1,0.8-0.1c-0.1-0.1-0.2,0-0.3,0
		c0-0.1,0.2-0.1,0.4,0c0,0-0.1,0-0.1,0c0.2,0,0.4,0,0.5,0C14.4,11.6,14.6,11.6,14.8,11.6z M11.8,6.6c0,0.3-0.3,0.6-0.3,0.8
		c0.1-0.2,0.1-0.1,0.1,0c0.1-0.3,0.3-0.9,0.4-1.2c-0.1,0.1-0.2,0.3-0.1,0.2C11.9,6.5,11.9,6.5,11.8,6.6C11.7,7,11.7,6.8,11.8,6.6z
		 M11.7,13.2c-0.1,0-0.1,0-0.2,0C11.6,13.3,11.7,13.3,11.7,13.2z M11.8,15.3c-0.1,0-0.2,0-0.2,0C11.6,15.4,11.8,15.3,11.8,15.3z
		 M11.8,14.1c-0.1,0.1-0.1,0-0.2,0.1C11.6,14.1,11.7,14.1,11.8,14.1z M11.8,11c-0.1,0.2-0.1,0.4-0.2,0.5
		C11.7,11.4,11.8,11.1,11.8,11z M11.8,15.6c-0.1,0.1-0.1,0-0.2,0.1C11.6,15.6,11.7,15.7,11.8,15.6z M11.9,7
		c-0.1-0.1-0.1,0.3-0.2,0.3L11.9,7c-0.1-0.1-0.1,0.2-0.2,0.3c0,0-0.1,0.3-0.1,0.4C11.8,7.4,11.8,7.2,11.9,7z M11.8,12
		c0,0.1-0.1,0-0.1,0.1C11.7,12,11.7,12,11.8,12z M12.4,14c-0.2,0.1-0.4,0.1-0.7,0.1C11.9,14,12.2,14,12.4,14z M11.8,12.3
		c0,0.1,0,0.1-0.1,0.1C11.7,12.3,11.8,12.3,11.8,12.3z M11.8,13.9c0.1-0.1,0.1,0,0.2-0.1c0,0.1,0.2,0,0.3,0c-0.1-0.1-0.2,0-0.2,0
		c0,0,0,0,0,0C11.9,13.8,11.8,13.8,11.8,13.9C11.7,13.8,11.8,13.8,11.8,13.9z M11.9,8c-0.1,0.2-0.1,0.4-0.1,0.5
		C11.9,8.4,12,8,12.1,7.8C12.4,7.1,12.7,6,13,5.2c0,0,0-0.1,0-0.1C12.6,6,12.2,7.2,11.9,8z M12.1,14.9c0,0.1-0.2,0-0.2,0
		C11.9,14.9,12,14.9,12.1,14.9z M12.2,14.4c0.1-0.1-0.1,0-0.2,0c0.1,0,0,0,0,0.1L12.2,14.4z M11.9,14.7c0-0.1,0.1,0,0.2-0.1
		C12.2,14.6,11.9,14.6,11.9,14.7z M11.9,14.7c0.1-0.1,0.1,0,0.2-0.1C12.1,14.7,12,14.7,11.9,14.7z M12.2,15.2
		C12.2,15.3,12.2,15.2,12.2,15.2c-0.1,0.1-0.3,0-0.2,0.1C12.1,15.3,12.2,15.3,12.2,15.2z M12.1,15c0-0.1,0.1,0,0.2-0.1
		C12.2,15,12.1,15,12.1,15z M12.1,8.6c0.1,0,0.1,0,0.1-0.1C12.1,8.4,12.1,8.5,12.1,8.6z M12.3,8C12.3,8,12.3,7.9,12.3,8
		c-0.1,0.2-0.2,0.3-0.1,0.4c0.1-0.1,0.2-0.4,0.2-0.6C12.4,7.9,12.3,7.9,12.3,8z M12.6,15.2c-0.1,0-0.2,0.1-0.3,0c0,0,0.1,0,0.1-0.1
		c0,0-0.2,0-0.1,0c0.1,0,0.1,0.1,0,0.1C12.4,15.2,12.5,15.2,12.6,15.2z M12.2,15.4c0.1-0.1,0.2,0,0.3-0.1
		C12.5,15.4,12.3,15.3,12.2,15.4z M12.5,7.2c0.1-0.3,0.2-0.4,0.2-0.6c-0.2,0.4-0.3,0.8-0.3,1.1C12.5,7.5,12.7,7.2,12.5,7.2z
		 M12.5,9.2c0,0,0,0.3-0.1,0.2C12.5,9.3,12.5,9.3,12.5,9.2z M12.6,8.5c0,0.1-0.1,0.2-0.1,0.3C12.5,8.7,12.6,8.6,12.6,8.5z M12.7,8.8
		c0,0.1-0.1,0.2-0.1,0.3C12.6,9.1,12.7,8.9,12.7,8.8z M12.7,8.1c0-0.1,0.1-0.3,0.1-0.3C12.7,7.9,12.6,8.1,12.7,8.1z M12.7,4.6
		C12.7,4.6,12.7,4.6,12.7,4.6C12.7,4.6,12.7,4.6,12.7,4.6z M12.7,4.6c0-0.1,0.1-0.1,0.1-0.2c0,0,0-0.1,0-0.1
		C12.8,4.5,12.7,4.6,12.7,4.6z M12.9,14.8c0,0.1-0.1,0-0.2,0C12.7,14.8,12.9,14.8,12.9,14.8z M12.8,11.7c0.2-0.1,0.4-0.1,0.6-0.1
		C13.2,11.7,13,11.7,12.8,11.7z M13,12c-0.1,0-0.3,0-0.3,0.1C12.9,12,12.9,12.1,13,12z M12.8,15.1C12.8,15.1,12.8,15.1,12.8,15.1
		C12.8,15.2,12.8,15.2,12.8,15.1z M13.1,5.8C13.1,5.7,13,5.7,13.1,5.8c-0.1,0.2-0.2,0.5-0.3,0.6C12.9,6.1,13,6,13.1,5.8z M13,4.2
		c0-0.1,0-0.1,0-0.1c0,0,0,0,0,0L13,4.2c-0.1,0-0.1,0-0.1,0.1c0,0,0,0,0,0.1C12.9,4.3,12.9,4.2,13,4.2c-0.1,0.1-0.1,0.1-0.1,0.2
		c0,0,0,0,0,0C12.9,4.4,12.9,4.3,13,4.2z M12.9,4.2C12.9,4.2,12.9,4.1,12.9,4.2c0-0.1,0-0.1,0-0.1s0,0,0,0
		C12.9,4.1,12.9,4.1,12.9,4.2z M13,3.8c0,0.1,0,0.1-0.1,0.2c0,0.1,0.1,0.1,0,0.1c0,0,0,0,0,0C13,4.1,13,4,13,4C13,4,13,3.9,13,3.8
		C13,3.9,13,3.9,13,3.8C13,3.9,13,3.9,13,3.8L13,3.8z M12.9,5.1C12.9,5.2,13,5.2,12.9,5.1C13,5.1,13,4.9,13.1,4.8
		C13,4.9,13,5,12.9,5.1z M13.1,14.8c0,0.1-0.2,0.1-0.2,0.1C12.9,14.8,13,14.8,13.1,14.8z M13,7.2c0.1-0.2,0.2-0.4,0.2-0.5
		c0,0,0-0.1,0-0.1C13.1,6.7,13,7,13,7.2z M13,3.8C13,3.9,13,3.9,13,3.8L13,3.8c0,0,0.1-0.1,0.1-0.1c0,0-0.1,0-0.1-0.1c0,0,0,0,0,0
		C13,3.7,13,3.8,13,3.8z M13.1,3.5c0,0.1,0,0.1,0,0.1c0-0.1,0.1-0.2,0.1-0.3c0,0,0-0.1,0,0C13.1,3.4,13.1,3.5,13.1,3.5z M13.1,5.7
		c0-0.1,0.1-0.2,0.1-0.3c0,0,0-0.1,0-0.1c0,0.1-0.1,0.2-0.1,0.3C13.1,5.7,13.1,5.7,13.1,5.7z M13.1,7.7c0-0.3,0.2-0.6,0.3-1
		C13.4,7,13.2,7.4,13.1,7.7z M13.2,4.5C13.2,4.5,13.2,4.4,13.2,4.5c0-0.1,0-0.1,0-0.1c0,0,0,0,0.1,0c0-0.1,0-0.1,0-0.2
		c0,0-0.1,0.1-0.1,0.2C13.2,4.4,13.2,4.5,13.2,4.5z M13.3,6.4c0,0,0-0.1,0-0.1C13.2,6.4,13.2,6.4,13.3,6.4c-0.1,0.1-0.1,0.1-0.1,0.2
		C13.2,6.5,13.3,6.5,13.3,6.4z M13.6,12c-0.1-0.1-0.3,0-0.3,0C13.4,12,13.5,12,13.6,12z M13.3,12c0.1,0,0.3,0,0.3-0.1
		C13.5,12,13.4,12,13.3,12z M14,12.1c-0.2,0-0.4,0-0.6,0.1C13.6,12.2,13.8,12.2,14,12.1z M13.7,5.3c0-0.1,0-0.1,0-0.2
		C13.6,5.2,13.7,5.3,13.7,5.3C13.6,5.3,13.6,5.3,13.7,5.3c-0.1,0.1-0.1,0.2-0.2,0.3c0,0.1,0,0.1,0,0.1c0.1-0.1,0.1-0.1,0.1,0
		C13.6,5.5,13.6,5.4,13.7,5.3z M13.5,5.8C13.5,5.8,13.5,5.8,13.5,5.8C13.6,5.8,13.6,5.7,13.5,5.8C13.6,5.7,13.5,5.7,13.5,5.8z
		 M13.5,15.4c0,0,0.1-0.1,0.1,0H13.5z M13.7,6.7c-0.1-0.2,0-0.4-0.1-0.5C13.5,6.3,13.6,6.7,13.7,6.7z M13.6,4.1c0,0.1,0,0.1,0,0.1
		C13.6,4.2,13.6,4.2,13.6,4.1c0.1,0,0.1-0.1,0.1-0.1c0,0.1,0,0.1,0.1,0.1c0,0,0-0.1,0-0.1v0c0-0.1,0-0.1-0.1-0.2
		C13.6,3.9,13.6,4,13.6,4.1z M14.5,8.7c0.2,0.4,0.2,0.7,0.4,0.9c0-0.1-0.1-0.3,0-0.4c0,0,0-0.1,0-0.1c-0.4-1-0.7-2.3-1-3.2
		c0,0.2,0.2,0.5,0,0.5c-0.1-0.4-0.1-0.7-0.2-1c0,0.1-0.1,0.2-0.1,0.3c0,0,0,0,0,0s0,0,0,0c0,0,0,0,0,0.1c0,0,0,0,0.1,0
		c0,0.1,0.2,0.4,0.1,0.5c-0.2,0-0.2-0.2-0.2-0.4c0,0,0,0,0,0.1c0,0,0-0.1,0-0.1c0,0,0,0,0,0.1c0.2,0.8,0.5,1.6,0.7,2.3
		c0.2,0.2,0.3,1,0.5,1.2C14.7,9.2,14.5,8.9,14.5,8.7z M13.6,5.8L13.6,5.8C13.6,5.8,13.6,5.8,13.6,5.8z M13.7,3.8c0,0.1,0,0.1,0,0.2
		c0-0.1,0-0.2,0.1-0.3c0-0.1,0-0.1,0-0.1s0,0,0-0.1v0c0.1-0.2,0.1-0.3,0.2-0.5c0-0.1,0-0.1,0-0.1c0,0,0-0.1,0-0.1c0,0,0,0.1-0.1,0.1
		C13.8,3.2,13.8,3.5,13.7,3.8z M13.8,4.9C13.8,4.9,13.8,4.9,13.8,4.9c0-0.1,0-0.2,0-0.2c0,0,0,0,0,0.1C13.8,4.8,13.8,4.9,13.8,4.9z
		 M13.9,7.4c-0.1,0-0.1-0.5-0.1-0.3c0.1,0.1,0.1,0.4,0.1,0.4C13.9,7.5,13.9,7.5,13.9,7.4z M14,8.2c-0.1-0.1-0.1-0.4-0.2-0.6
		C13.9,7.7,13.9,8,14,8.2z M14.2,12c0.1,0,0.2,0,0.1-0.1c-0.1,0.1-0.2,0-0.3,0.1c-0.1-0.1-0.2,0-0.2,0C13.9,12,14,12,14.2,12
		C14.2,12,14.1,12,14.2,12z M13.8,5C13.8,5,13.8,5,13.8,5C13.8,5,13.8,5,13.8,5L13.8,5L13.8,5z M13.8,5.1
		C13.8,5.1,13.8,5.1,13.8,5.1C13.8,5.1,13.8,5.1,13.8,5.1C13.9,5.1,13.8,5.1,13.8,5.1z M14.2,11.9c-0.1,0-0.3,0-0.3,0.1
		C14,11.9,14.1,11.9,14.2,11.9z M13.9,4.3C13.9,4.3,13.9,4.3,13.9,4.3C13.9,4.4,13.9,4.4,13.9,4.3C13.9,4.4,13.9,4.4,13.9,4.3
		C13.9,4.4,13.9,4.4,13.9,4.3z M13.9,7.6C14,7.9,14,8.1,14.1,8.3c0-0.2-0.1-0.4-0.1-0.6c0.1,0,0.1,0.2,0.1,0.2
		c0-0.1-0.1-0.4-0.1-0.3C14.1,7.7,13.9,7.6,13.9,7.6z M14.5,7c-0.1-0.2-0.1-0.5-0.2-0.6c0,0.1,0,0.1,0,0.1c0-0.2-0.1-0.2-0.2-0.3
		c0.1,0.1,0.1,0.3,0.1,0.3C14.1,6.3,14,6,14,5.8c0,0.1,0.1,0.4,0.2,0.3c-0.1-0.2-0.2-0.4-0.3-0.5C14.3,7,14.6,7.8,15,9
		c0-0.4-0.3-0.8-0.3-1.2c0,0.1,0.1,0.3,0.2,0.3c-0.1-0.3-0.2-0.5-0.2-0.8c0.1,0.2,0.1,0.3,0.2,0.5c0.1-0.2,0-0.2,0.1-0.3
		c-0.2-0.3-0.2-0.8-0.4-1.1c0,0.1,0,0.1,0,0.1c0-0.1,0-0.3-0.1-0.4C14.4,6.4,14.5,6.7,14.5,7z M14.1,3.9C14,4,14,4,14,4.1
		c0,0,0,0.1,0,0.1c0,0,0-0.1,0.1-0.1c0,0,0,0.1,0,0.1c0,0,0,0,0,0L14.1,3.9z M14,2.7C14,2.7,14,2.8,14,2.7c0,0,0.1-0.1,0.1-0.2
		C14.1,2.6,14,2.6,14,2.7z M14.1,4.3C14.1,4.2,14.1,4.2,14.1,4.3V4.2c0,0,0,0,0,0C14.1,4.2,14,4.2,14.1,4.3
		C14,4.2,14.1,4.2,14.1,4.3z M14.1,4.3c0,0.1,0.1,0.2,0.1,0.3C14.2,4.5,14.1,4.4,14.1,4.3C14.1,4.4,14.1,4.4,14.1,4.3
		C14.1,4.3,14.1,4.3,14.1,4.3z M14.1,4c0-0.1,0-0.2-0.1-0.2c0,0,0,0,0,0.1C14.1,3.9,14.1,4,14.1,4C14.1,4,14.1,4,14.1,4z M14.1,6.9
		c0.1,0.1,0.1,0.2,0.2,0.3C14.1,7.2,14.1,7,14.1,6.9z M14.1,7.2c0.1,0.1,0.1,0.3,0.2,0.4C14.2,7.6,14.1,7.3,14.1,7.2z M14.2,5.7
		c-0.1-0.2,0-0.4,0-0.3c-0.1-0.1,0-0.2-0.1-0.3C14,5.3,14.2,5.6,14.2,5.7z M14.3,3.1c0,0.2-0.1,0.3-0.1,0.5c0,0,0,0.1,0,0.1
		c0,0,0,0.1,0.1,0.1c0-0.1,0-0.1,0-0.2c0,0,0.1,0.1,0.1,0c0-0.1,0-0.1,0-0.2c0-0.1,0-0.1,0-0.1c0-0.1,0-0.1,0-0.1c0-0.1,0-0.2,0-0.3
		C14.3,3,14.3,3,14.3,3.1c0.1,0,0.1,0.1,0,0.1C14.3,3.2,14.3,3.1,14.3,3.1z M14.2,4.1C14.1,4.2,14.1,4.2,14.2,4.1c0,0.2,0,0.2,0,0.3
		c0,0.1,0.1,0.1,0.1,0.2C14.2,4.5,14.2,4.3,14.2,4.1z M14.2,14.7c0.1,0,0.2,0,0.1-0.1C14.3,14.7,14.2,14.6,14.2,14.7z M14.3,5.9
		c0.1,0,0.1,0.2,0.1,0.2c0-0.1,0-0.3-0.1-0.4C14.3,5.8,14.2,5.7,14.3,5.9z M15,4.9c-0.1-0.1,0-0.3-0.1-0.4c-0.1,0.2,0.1,0.5,0,0.5
		c0,0,0.1,0.1,0.1,0.2c0-0.1-0.1-0.2,0-0.3c0,0.1,0.1,0.3,0,0.5c0.2,0.2,0.2,0.4,0.2,0.5c-0.2-0.1-0.1-0.5-0.2-0.6
		c0,0.1,0,0.2,0,0.2c-0.3-0.3-0.4-1.2-0.5-1.7c0.1-0.1,0.1,0.1,0.1,0.2c0-0.1,0.1,0,0.1,0.1c0-0.2-0.1-0.4-0.1-0.7
		c0-0.1,0-0.2-0.1-0.2c0,0,0,0.1,0,0.1v0c0,0.1-0.1,0.3-0.1,0.4c0.1,0.4,0.3,0.7,0.4,1.2c0,0-0.1-0.4-0.1-0.1
		c-0.1,0.1-0.1-0.1-0.1-0.1c-0.1,0.2,0.1,0.4,0.1,0.6c-0.1,0.1-0.1-0.1-0.1-0.2c0,0,0,0.1,0,0.1c-0.1-0.1-0.1-0.4-0.2-0.6
		c0.2,1.2,0.5,1.9,0.8,3c0-0.2-0.1-0.4-0.1-0.7C15,7.3,15,7.4,15.1,7.5C15,7.2,15,7.1,14.9,6.7c-0.1,0,0,0.2,0,0.2
		c-0.2-0.4-0.4-1-0.4-1.5c0.1,0.3,0.1,0.5,0.2,0.9c0-0.2-0.1-0.3-0.1-0.5c0-0.1,0.2,0.3,0.1,0.2c0.1,0.3,0.3,0.8,0.4,1H15
		c0.1,0.1,0.2,0.2,0.2,0.4c0.2,0.4,0.3,0.8,0.4,1.2c0.1-0.1-0.2-0.4-0.1-0.5c0,0.1,0.1,0.3,0.2,0.5c-0.1-0.4-0.2-0.6-0.2-1
		c0,0,0.1,0.1,0.1,0.1c0.1-0.2-0.3-0.8-0.3-1.1c0.1,0.1,0.1,0,0.1,0.2c0-0.3-0.1-0.4-0.2-0.7c0.2,0.3,0.2,0.6,0.4,1c0,0-0.1,0-0.1,0
		c0.1,0.3,0.2,0.5,0.3,0.8c0,0,0-0.1,0-0.1c0.1,0.1,0.1,0.5,0.2,0.6c-0.1-0.3-0.2-0.6-0.3-0.9c0.1,0,0.1,0,0.1,0.1
		c-0.1-0.4-0.3-1.1-0.5-1.6c0,0,0,0.1,0,0.1C15.2,5.6,15.1,5.1,15,4.9C15,4.8,15,4.9,15,4.9z M14.3,8.6c0,0.1,0,0.2,0.1,0.2
		C14.3,8.8,14.3,8.6,14.3,8.6z M14.3,15.2c0.1-0.1,0.2,0,0.3-0.1C14.4,15.1,14.3,15.1,14.3,15.2L14.3,15.2z M14.3,10.1
		c0,0,0.2,0.2,0.1,0.3L14.3,10.1z M14.4,2.8c0-0.1,0-0.2,0-0.3c-0.1,0.1-0.1,0.3-0.1,0.4c0,0.1,0.1,0.1,0.1,0.1
		C14.4,3,14.4,2.9,14.4,2.8z M14.5,7.4c-0.1-0.1-0.1-0.2-0.2-0.3C14.5,7.1,14.5,7.3,14.5,7.4z M14.6,1.9c0.1,0.1,0.1,0.1,0,0.1
		C14.6,2,14.6,2,14.6,1.9c0,0.2-0.1,0.2-0.1,0.3c0,0.1,0,0.2,0,0.2c0,0,0-0.1,0-0.1c0,0.1,0,0.2-0.1,0.3c0,0.1,0,0.1,0,0.2
		c0,0,0-0.1,0.1-0.1c0-0.1,0-0.1,0-0.1c0,0,0,0,0.1,0c0-0.1,0.1-0.2,0.1-0.3c0-0.1-0.1-0.1,0-0.2c0,0.1,0,0.1,0,0.1
		C14.9,1.7,15,1.2,15,0.8c0,0-0.1,0-0.1,0.1C14.8,1.2,14.7,1.5,14.6,1.9z M14.5,3.1c0,0.1,0,0.1,0,0.2c0,0,0,0,0,0
		c0.1,0.3,0.1,0.6,0.2,0.9c-0.1-0.3-0.1-0.6-0.1-0.9C14.5,3.2,14.5,3.1,14.5,3.1z M14.4,7.1c0.1,0,0.1,0.2,0.1,0.3
		C14.6,7.5,14.5,7.1,14.4,7.1z M14.7,2.6c-0.1,0.1-0.1,0.1-0.1,0.2c0,0,0,0,0,0c0,0.1,0,0.1,0,0.2c0,0.1,0,0.1,0,0.2
		c0-0.1,0-0.1,0-0.1c0.1,0.1,0.1,0.2,0.1,0.3c0.1,0.2,0.1,0.4,0.1,0.6c0,0.1,0-0.1-0.1-0.2c-0.1,0.1,0,0.2,0,0.4
		c0.1-0.1,0.1,0.3,0.1,0.5c0.1,0,0-0.1,0-0.2c0-0.1,0.1,0.1,0.1,0.2c0-0.2-0.1-0.4-0.1-0.7c0.1,0.1,0.2,0.2,0.2,0.4
		c0-0.2-0.1-0.5-0.2-0.8C14.7,3.1,14.6,2.8,14.7,2.6z M14.7,8.9c-0.1-0.1,0-0.2-0.1-0.3C14.7,8.5,14.8,8.8,14.7,8.9z M14.8,4.6
		c0-0.1-0.1-0.3-0.1-0.3C14.7,4.4,14.7,4.6,14.8,4.6z M14.8,7.5c0.1,0-0.1-0.3-0.1-0.4c0,0,0-0.1-0.1-0.1L14.8,7.5z M14.9,11.7
		C14.9,11.6,14.8,11.6,14.9,11.7c-0.1-0.1-0.1,0-0.1,0C14.8,11.6,14.8,11.7,14.9,11.7z M14.8,9c0.1,0,0.1,0.2,0.1,0.3
		C14.7,9.2,14.8,9,14.8,9z M14.9,6.4c-0.1-0.2-0.2-0.6,0-0.2C14.9,6.3,15,6.4,14.9,6.4C15,6.4,15,6.5,14.9,6.4z M15,6.7
		c-0.1-0.1-0.1-0.2-0.1-0.3C14.9,6.4,15,6.7,15,6.7z M14.9,11.6C14.9,11.6,14.9,11.6,14.9,11.6C14.9,11.7,14.9,11.7,14.9,11.6
		C14.9,11.6,14.9,11.6,14.9,11.6z M15.2,15c-0.1,0-0.2,0-0.3,0.1C15,15.1,15.1,15.1,15.2,15z M15,6.6c0.2,0.4,0.4,1,0.4,1.4
		C15.3,7.5,15.2,7.1,15,6.6z M15,1.5c0.1-0.2,0.1-0.4,0.1-0.6C15,0.9,15,1.3,15,1.5z M15.2,5.9C15.1,5.9,15,5.7,15,5.5
		C15.1,5.7,15.2,5.8,15.2,5.9z M15.2,6.1l0,0.1C15.2,6.3,15.2,6.2,15.2,6.1c0,0.2,0,0.2-0.1,0.1C15.1,6.2,15.1,6.1,15.2,6.1z
		 M15.2,5.4c0-0.1-0.1-0.3-0.1-0.4C15.1,5.1,15.2,5.2,15.2,5.4z M15.4,6.2c-0.1-0.1-0.2-0.3-0.2-0.5C15.3,5.9,15.4,6.1,15.4,6.2z
		 M15.4,7.1c-0.1,0.1,0.2,0.4,0.2,0.7c0.1-0.1-0.1-0.3-0.1-0.4c0,0,0,0.1,0,0.1c0-0.3-0.1-0.4-0.2-0.6c-0.1,0,0,0.1-0.1,0
		C15.4,6.9,15.4,6.9,15.4,7.1z M15.5,14.3C15.5,14.3,15.5,14.3,15.5,14.3c-0.1,0-0.1,0-0.2,0C15.4,14.3,15.5,14.3,15.5,14.3z
		 M15.4,11.5L15.4,11.5C15.4,11.5,15.4,11.4,15.4,11.5C15.4,11.5,15.4,11.5,15.4,11.5z M15.5,6c0.1,0.4,0.2,0.8,0.4,1.1
		C15.7,6.8,15.7,6.2,15.5,6z M15.6,2.3c0-0.3,0-0.2-0.1-0.5C15.6,1.9,15.6,2.3,15.6,2.3z M15.7,6.1c0.1,0.6,0.4,1.5,0.6,2
		c-0.1-0.6-0.4-1.2-0.5-1.7c0.1,0,0.1,0.1,0.1,0.1c0-0.1,0-0.2-0.1-0.2C15.8,6.5,15.7,6.1,15.7,6.1z M15.7,4.1
		c0,0.1,0.1,0.2,0.1,0.2c-0.1-0.1,0-0.2,0-0.2C15.7,4.1,15.8,4.2,15.7,4.1z M15.7,15.3c0.1,0.1,0.1,0.2,0.1,0.3
		C15.8,15.6,15.8,15.4,15.7,15.3z M15.8,15.1C15.8,15,15.8,15,15.8,15.1C15.8,15,15.8,15,15.8,15.1C15.8,15,15.8,15.1,15.8,15.1z
		 M16,1.9c-0.1-0.1-0.1-0.2-0.1-0.3c0-0.1,0,0.2,0.1,0.2C16,1.8,15.9,1.8,16,1.9z M16,6.7c-0.1-0.1,0-0.2-0.1-0.3
		C15.9,6.4,15.9,6.7,16,6.7z M16.1,15.8C16,15.7,16,15.5,16,15.5C16,15.6,16,15.7,16.1,15.8z M16,5.1c0,0.1,0.1,0.4,0.1,0.4
		C16.1,5.4,16.1,5.1,16,5.1z M16.1,16.6c0.2,0.3,0.2,0.5,0.3,0.9C16.2,17.3,16.2,16.9,16.1,16.6z M16.5,4.2
		c-0.3-0.3-0.2-0.7-0.3-1.2c0.1,0.3,0.2,0.8,0.3,1.1C16.4,3.9,16.5,4,16.5,4.2c0.1-0.2-0.1-0.4,0-0.6c0.1,0.2,0.1,0.4,0.2,0.6
		c-0.1,0.2-0.2,0-0.2,0.2C16.4,4.4,16.5,4.2,16.5,4.2z M16.3,16.4c0-0.1,0-0.3-0.1-0.3C16.3,16.2,16.3,16.4,16.3,16.4z M16.3,6.1
		c0.2,0.9,0.4,1.4,0.7,2.2c0.1,0,0.1,0.1,0.1,0.1c0-0.1-0.1-0.2-0.1-0.3c0.1,0,0.1,0.2,0.1,0.2C17.1,8.1,17,7.8,17,8
		c-0.1-0.3-0.2-0.5-0.2-0.7c0,0.1,0.1,0.2,0.1,0.3c0,0,0.1,0.2,0.1,0.1l-0.2-0.6c0,0,0.1,0,0.1-0.1c-0.1-0.1-0.1-0.2-0.1-0.4
		c0-0.1-0.2-0.6-0.2-0.4c0,0.1,0.1,0.3,0,0.3C16.5,6.5,16.4,6.1,16.3,6.1C16.3,6.1,16.3,6.1,16.3,6.1z M16.4,5.8
		c-0.1-0.2,0-0.4-0.1-0.5C16.3,5.4,16.4,5.9,16.4,5.8z M16.4,3.5c-0.1-0.1-0.1-0.2-0.1-0.4C16.4,3.3,16.4,3.4,16.4,3.5z M16.3,13.8
		L16.3,13.8C16.4,13.8,16.4,13.8,16.3,13.8C16.3,13.8,16.3,13.8,16.3,13.8C16.3,13.8,16.3,13.8,16.3,13.8z M16.5,14.2L16.5,14.2
		C16.5,14.2,16.5,14.2,16.5,14.2C16.5,14.2,16.5,14.2,16.5,14.2C16.5,14.2,16.5,14.2,16.5,14.2z M16.5,15.5c-0.1,0-0.1,0.1,0,0.1
		C16.5,15.6,16.5,15.6,16.5,15.5z M16.6,16.1c0.1,0,0.1,0,0.1,0c-0.1-0.1-0.1-0.3-0.2-0.4c0,0.2,0,0.4,0.1,0.6
		C16.6,16.2,16.7,16.2,16.6,16.1z M16.8,2.9c0,0.2-0.1-0.3-0.1-0.1c0-0.1,0-0.2,0-0.4c0-0.1,0,0.3,0.1,0.2c0.1,0,0.1,0.1,0,0.1
		L16.8,2.9z M16.9,6.4c-0.1-0.1-0.1-0.2-0.2-0.3C16.8,6,16.9,6.3,16.9,6.4z M17,17.3c-0.1-0.3-0.2-0.7-0.3-1c0,0.2,0,0.5,0.1,0.4
		C16.9,17,16.9,17.2,17,17.3z M17.7,19c-0.1-0.4-0.2-1-0.4-1.5c-0.1-0.3-0.2-0.5-0.2-0.8c-0.1-0.3-0.2-0.5-0.2-0.7
		c0-0.2-0.2-0.4-0.2-0.5c0,0.2,0.1,0.5,0.2,0.6c0.1,0.4,0.3,1,0.4,1.5C17.5,18.1,17.6,18.6,17.7,19z M18.4,23c-0.3-1-0.8-2.1-1-3.1
		c-0.1,0,0,0.1,0,0.1c-0.1-0.2,0-0.2,0-0.3c-0.2-0.3-0.2-0.9-0.4-1.3c0.1,0.1,0.1,0.2-0.1,0.1c0.2,0.3,0.2,0.8,0.3,0.9
		c0,0.4,0.2,0.8,0.3,1.1c0,0-0.1,0-0.1,0C17.8,21.3,17.8,22.4,18.4,23C18.4,23,18.4,23,18.4,23z M17,4.4c0.1,0,0.1,0.2,0.1,0.2
		C17,4.5,17,4.4,17,4.4z M17.1,6.7c0.1,0,0.1,0.1,0.1,0.2C17.1,6.8,17.1,6.8,17.1,6.7z M17.3,15.7c0-0.2-0.1-0.5-0.2-0.6
		c0.1,0.1,0.1,0.4,0.1,0.6H17.3z M17.1,17.5c0,0.5,0.1,0.7,0.2,1.2C17.4,18.5,17.2,17.9,17.1,17.5z M17.4,15.3
		c0-0.1-0.1-0.1-0.1-0.1c0,0,0.1,0.1,0,0.1C17.4,15.6,17.4,15.6,17.4,15.3z M17.4,6.6c0.1,0.1,0.1,0.1,0.1,0.2
		C17.4,6.8,17.4,6.7,17.4,6.6z M17.5,16.4c0,0.1,0.1,0.3,0.1,0.4C17.6,16.7,17.5,16.5,17.5,16.4c0,0-0.1-0.3-0.1-0.3
		c0,0.3,0.1,0.4,0.1,0.6C17.6,16.7,17.4,16.4,17.5,16.4z M17.5,6.4c0.1,0,0.2,0.2,0.2,0.3C17.5,6.7,17.5,6.6,17.5,6.4z M17.9,17.4
		c0-0.1-0.1-0.3-0.1-0.1c0-0.1,0-0.2,0-0.2c-0.2-0.4-0.1-0.2-0.1,0c-0.2-0.3-0.1-0.6-0.2-0.8c0,0.2,0,0.1,0,0.1
		C17.6,16.5,17.7,17.1,17.9,17.4z M17.8,20.2c0.1,0.4,0.2,0.8,0.4,1.1c-0.2-0.6-0.3-1.1-0.5-1.7C17.5,19.7,17.7,20,17.8,20.2z
		 M17.8,19c0.1,0.2,0,0.3,0.1,0.5C18,19.5,17.8,19.1,17.8,19z M18,9.3c0-0.1-0.1-0.5-0.2-0.5C18,9,17.9,9.1,18,9.3z M18,22.5
		c0.1,0.2,0.1,0.4,0.2,0.5C18.3,22.9,18,22.6,18,22.5z M18.2,11.1c-0.1-0.4-0.2-0.8-0.3-1.1C18.1,10.4,18.1,10.7,18.2,11.1z
		 M18.1,9.7c0.1,0.2,0.1,0.4,0.2,0.6C18.2,10.1,18.1,9.8,18.1,9.7z M18.1,9.7c0.1,0.3,0.1,0.4,0.2,0.6C18.3,10.2,18.2,9.8,18.1,9.7z
		 M18.6,20.4l-0.1-0.3c0-0.1-0.1-0.2-0.1-0.3c-0.1-0.1-0.2-0.2-0.1-0.2c0,0,0,0.1,0.1,0.1c-0.1-0.1-0.1-0.2-0.1-0.3c0,0,0,0,0,0
		s0,0,0,0v0c0-0.1,0-0.4-0.1-0.5c0,0.1,0,0.3,0.1,0.4c0-0.1-0.1-0.2-0.1-0.2c0.1,0.2,0.1,0.4,0.2,0.6c0.1,0.2,0.1,0.4,0.2,0.6
		C18.5,20.3,18.6,20.5,18.6,20.4z M18.2,18.9C18.2,18.9,18.2,18.9,18.2,18.9C18.2,18.9,18.2,18.9,18.2,18.9z M18.3,19.5
		c0,0-0.1-0.1-0.1-0.1C18.2,19.4,18.3,19.4,18.3,19.5L18.3,19.5L18.3,19.5z M18.4,9.3c-0.1-0.2-0.1-0.4-0.2-0.6
		C18.3,8.9,18.4,9.1,18.4,9.3c0.1,0.2,0.1,0.4,0.2,0.6C18.5,9.7,18.5,9.5,18.4,9.3z M18.3,10.7c0.1,0.2,0.1,0.5,0.1,0.7
		c0,0.1,0,0,0.1,0c0,0,0,0,0,0.1l0,0c0-0.2-0.1-0.3-0.1-0.4C18.5,11,18.4,10.7,18.3,10.7z M18.4,10.8c0.1,0.3,0.1,0.4,0.2,0.6
		C18.6,11.2,18.5,10.8,18.4,10.8z M19,11.8C19,11.8,19,11.8,19,11.8C19,11.8,19,11.8,19,11.8C19,11.8,19,11.8,19,11.8z M19,15
		c0.1,0.2,0.1,0.7,0.2,0.8c0-0.1-0.1-0.3-0.1-0.3C19.3,15.9,19.2,14.9,19,15z M19,12C19.1,12,19.1,12,19,12C19.1,12,19.1,12,19,12
		C19.1,12,19.1,12,19,12c0.1,0.1,0.1,0.1,0.1,0.1c0.1,0,0.1,0,0.1-0.1c0,0-0.1,0-0.1-0.1c0.1,0,0.2,0,0.3,0C19.2,12,19.1,11.9,19,12
		z M20.9,21.2c-0.2-0.3-0.2-0.5-0.3-0.8c0,0,0.1,0,0-0.1c-0.4-0.9-0.5-1.8-0.9-2.6c0,0.1,0,0.1,0,0.2c0-0.2,0-0.7-0.2-0.9
		c0,0.1,0,0.1,0,0.2c-0.1-0.3-0.2-0.5-0.3-0.9c0.2,0.3,0.1,0.4,0.3,0.7c0.1-0.1,0-0.4-0.1-0.7c-0.1,0,0.1,0.2,0,0.3
		c-0.1-0.3-0.2-0.6-0.2-0.8c0,0.1,0,0.2,0.1,0.3c0,0-0.1,0-0.1,0c0.1,0.3,0.2,0.5,0.2,0.8c-0.1,0,0.1,0.2,0,0.2
		c-0.1-0.1-0.1-0.2-0.1-0.2c0,0.1,0,0.1-0.1,0.2c-0.1-0.1-0.2-0.2-0.2-0.4c0-0.1-0.1-0.3-0.1-0.2c0.2,0.4,0.2,0.6,0.4,1
		c0.1,0,0-0.3,0-0.4c0.1,0.3,0.1,0.5,0.3,0.7c0-0.1,0,0,0.1,0c-0.1-0.2-0.1-0.3-0.1-0.5c0.2,0.6,0.4,1.2,0.5,1.9
		c0.2,0.6,0.4,1.2,0.6,1.7c0-0.1-0.1-0.2,0-0.2C20.8,20.9,20.8,21,20.9,21.2z M19.2,11.8C19.2,11.7,19.3,11.8,19.2,11.8
		C19.2,11.7,19.1,11.8,19.2,11.8z M19.7,16.2c-0.1,0.1-0.2-0.2-0.2-0.3c0,0,0,0.1,0.1,0.1c0-0.2-0.3-0.6-0.1-0.5
		c0-0.1-0.1-0.1-0.1-0.1c0,0,0.1,0,0.1,0c-0.1-0.1-0.1-0.2-0.1-0.3c0,0-0.1,0-0.1,0c0.1,0,0-0.1,0-0.1c0.1,0,0.1,0,0.1-0.1
		c0,0-0.1,0-0.1,0c0,0.1,0,0-0.1,0c-0.1,0.2,0.2,0.8,0.1,0.7c0,0.1,0,0.3,0.1,0.2c0-0.1,0-0.1,0-0.1c0.1,0.3,0.2,0.6,0.4,0.8
		L19.7,16.2z M19.4,16.9c0.1,0.1,0.2,0.3,0.1,0.4C19.6,17.2,19.5,17,19.4,16.9z M19.5,15.3c0.1,0.1,0.1,0.4,0.1,0.4
		C19.6,15.6,19.6,15.3,19.5,15.3z M19.6,18.1c0,0.1,0,0.3,0.1,0.4C19.7,18.4,19.6,18.2,19.6,18.1z M19.8,16.7
		c-0.1-0.1-0.1-0.3-0.2-0.5v0.1c-0.1,0,0-0.2-0.1-0.1c0,0.3,0.2,0.6,0.1,0.8c0.1,0.1,0.1,0,0.1,0c0.1,0.3,0.2,0.6,0.3,0.9
		c-0.1-0.3,0-0.5,0-0.8C20,17.1,20,17,19.9,17.1c0.1-0.1,0-0.1,0-0.2C19.8,17,19.8,16.8,19.8,16.7c0.1,0.1,0.1,0.1,0.1,0.1
		C19.8,16.7,19.9,16.7,19.8,16.7C19.8,16.7,19.8,16.7,19.8,16.7z M19.7,14.6c0,0.1,0.1,0.1,0.1,0.2c0.1,0,0.3,0,0.4-0.1
		c0,0,0-0.1,0,0C20,14.6,19.8,14.6,19.7,14.6z M19.8,17.8c-0.1-0.1-0.1-0.7,0-0.2C19.8,17.7,19.8,17.7,19.8,17.8z M20,19.6
		c-0.1-0.3-0.1-0.5-0.3-0.9C19.6,18.9,19.9,19.5,20,19.6c-0.1-0.1-0.1-0.1-0.1,0H20C19.9,19.6,20,19.6,20,19.6z M20,18.7
		c0.1,0.3,0.3,0.5,0.2,0.7c-0.1-0.5-0.2-1-0.4-1.5c0.1,0,0.1,0.1,0.1,0.2C20,18.1,20,18.4,20,18.7z M19.8,14.9c0.1,0,0.2,0,0.3-0.1
		C20,14.7,19.9,14.8,19.8,14.9z M19.9,18.8C19.9,18.7,19.9,18.7,19.9,18.8C19.9,19.1,20,19.1,19.9,18.8z M20,16.4c0-0.1,0-0.1,0-0.2
		C19.9,15.8,19.9,16.2,20,16.4z M20,18.9c0.1,0.2-0.1,0.3,0,0.4C20,19.3,20,19,20,18.9z M20.1,18c0,0.1,0.1,0.2,0.1,0.3
		c0,0.2,0,0.2,0,0.4c0,0.2,0.1,0.3,0.2,0.5c0.1,0,0.1,0.2,0.1,0.2c0-0.1,0-0.1-0.1-0.1c0,0.1,0,0.2,0.1,0.2c-0.1-0.1,0,0,0,0
		c-0.1-0.4-0.3-0.7-0.3-1.2c0.1,0.3,0-0.1,0-0.2C20.2,18.1,20.1,18,20.1,18z M20.1,17.7c0.1,0.2,0.1,0.5,0.2,0.7
		C20.3,18.1,20.2,17.8,20.1,17.7z M20.5,16.8c0-0.1-0.2-0.4-0.1-0.3c0.1,0.2,0.1,0.4,0.2,0.5C20.5,17,20.5,16.9,20.5,16.8z
		 M20.5,18.9c0.1,0.1,0.1,0.4,0.2,0.4C20.6,19.2,20.6,18.9,20.5,18.9z M20.6,20.5C20.7,20.5,20.7,20.4,20.6,20.5
		C20.7,20.6,20.7,20.6,20.6,20.5c0,0.1,0,0.1,0,0.1c-0.1,0-0.1-0.2-0.1-0.2c0.1,0.1,0-0.1,0-0.1c0,0,0,0.1,0.1,0.1
		C20.6,20.4,20.7,20.4,20.6,20.5z M20.6,20.3 M20.6,19.7c0.1,0.1,0.2,0.5,0.3,0.8C20.9,20.4,20.7,19.7,20.6,19.7z M20.7,17.4
		c0.1,0.1,0.1,0.3,0.2,0.4C20.7,17.8,20.7,17.5,20.7,17.4z M20.7,19.5c0,0.1,0,0.1,0.1,0.2C20.7,19.6,20.7,19.5,20.7,19.5z
		 M20.9,19.3 M21.1,20.9c0-0.1-0.1-0.2-0.1-0.1C21,20.8,21,21,21.1,20.9z"/>
</g>
</svg>
