<?xml version="1.0" encoding="utf-8"?>
<!-- Generator: Adobe Illustrator 17.1.0, SVG Export Plug-In . SVG Version: 6.00 Build 0)  -->
<!DOCTYPE svg PUBLIC "-//W3C//DTD SVG 1.0//EN" "http://www.w3.org/TR/2001/REC-SVG-20010904/DTD/svg10.dtd">
<svg version="1.0" id="Calque_1" xmlns="http://www.w3.org/2000/svg" xmlns:xlink="http://www.w3.org/1999/xlink" x="0px" y="0px"
	 viewBox="0 0 30.2 30.2" enable-background="new 0 0 30.2 30.2" xml:space="preserve">
<g>
	<g>
		<g>
			<path d="M19.4,13.3c3.4,0,6.1,2.7,6.1,6.1s-2.7,6.1-6.1,6.1s-6.1-2.7-6.1-6.1S16.1,13.3,19.4,13.3 M19.4,8.7
				c-5.9,0-10.7,4.8-10.7,10.7s4.8,10.7,10.7,10.7c5.9,0,10.7-4.8,10.7-10.7S25.4,8.7,19.4,8.7L19.4,8.7z"/>
		</g>
	</g>
	<g>
		<g>
			<path d="M20.2,4.6L20.2,4.6c0.2,0,0.3,0,0.4,0c0.5,1.1-0.4,6-5.2,11.4c-3.8,4.3-8.1,6.5-10.3,6.5
				c-0.2,0-0.3,0-0.4,0c-0.5-1.1,0.4-6,5.2-11.4C13.7,6.8,18,4.6,20.2,4.6 M20.2,0C16.4,0,11,3,6.5,8C0.4,14.9-1.8,22.9,1.6,26
				c0.9,0.8,2.1,1.2,3.5,1.2c3.9,0,9.3-3,13.8-8c6.1-6.8,8.3-14.9,4.8-17.9C22.8,0.4,21.6,0,20.2,0L20.2,0z"/>
		</g>
	</g>
</g>
</svg>
