<?xml version="1.0" encoding="utf-8"?>
<!-- Generator: Adobe Illustrator 17.1.0, SVG Export Plug-In . SVG Version: 6.00 Build 0)  -->
<!DOCTYPE svg PUBLIC "-//W3C//DTD SVG 1.0//EN" "http://www.w3.org/TR/2001/REC-SVG-20010904/DTD/svg10.dtd">
<svg version="1.0" xmlns="http://www.w3.org/2000/svg" xmlns:xlink="http://www.w3.org/1999/xlink" x="0px" y="0px"
	 viewBox="0 0 33.2 33.2" enable-background="new 0 0 33.2 33.2" xml:space="preserve">
<g>
	<g>
		<g>
			<path d="M21.4,14.2c3.7,0,6.7,3,6.7,6.7s-3,6.7-6.7,6.7s-6.7-3-6.7-6.7S17.7,14.2,21.4,14.2 M21.4,9.2
				c-6.5,0-11.7,5.2-11.7,11.7c0,6.5,5.2,11.7,11.7,11.7s11.7-5.2,11.7-11.7C33.1,14.4,27.8,9.2,21.4,9.2L21.4,9.2z"/>
		</g>
	</g>
	<g>
		<g>
			<path d="M22.2,4.7L22.2,4.7c0.2,0,0.4,0,0.5,0c0.5,1.2-0.3,6.5-5.7,12.5c-4.2,4.7-8.8,7.1-11.3,7.1
				c-0.2,0-0.4,0-0.5,0c-0.5-1.2,0.3-6.5,5.7-12.5C15.1,7.1,19.8,4.7,22.2,4.7 M22.2-0.3C18-0.3,12.1,3,7.2,8.5
				c-6.7,7.5-9,16.2-5.3,19.6c1,0.9,2.3,1.3,3.8,1.3c4.2,0,10.1-3.3,15-8.8c6.7-7.5,9-16.2,5.3-19.6C25,0.1,23.7-0.3,22.2-0.3
				L22.2-0.3z"/>
		</g>
	</g>
</g>
</svg>
