<?xml version="1.0" encoding="utf-8"?>
<!-- Generator: Adobe Illustrator 17.1.0, SVG Export Plug-In . SVG Version: 6.00 Build 0)  -->
<!DOCTYPE svg PUBLIC "-//W3C//DTD SVG 1.0//EN" "http://www.w3.org/TR/2001/REC-SVG-20010904/DTD/svg10.dtd">
<svg version="1.0" id="Calque_1" xmlns="http://www.w3.org/2000/svg" xmlns:xlink="http://www.w3.org/1999/xlink" x="0px" y="0px"
	 viewBox="0 0 28.3 23.7" enable-background="new 0 0 28.3 23.7" xml:space="preserve">
<g>
	<path d="M23,24.6c-0.1-0.1-0.3-0.3-0.3-0.3c-0.1-0.1-0.1-0.2-0.1-0.3c-0.3-0.1-0.6-0.4-0.7-0.7c-0.1-0.3-0.3-0.6-0.5-0.8v-0.4
		c-0.1-0.1-0.2-0.2-0.3-0.3c-0.1-0.1-0.2-0.2-0.3-0.3c0.1-0.3,0.1-0.5-0.1-0.7c-0.1-0.2-0.2-0.4-0.3-0.6c-0.1-0.1-0.2-0.2-0.3-0.3
		s-0.1-0.2-0.2-0.3c-0.1,0-0.3,0-0.5,0c-0.2,0-0.4,0-0.6,0c-0.2,0-0.4,0-0.5,0c-0.2,0-0.3-0.1-0.4-0.2c-0.2,0-0.3,0-0.5-0.1
		c-0.2,0-0.3-0.1-0.5-0.1c-0.5,0.1-0.9,0.1-1.3,0.1c-0.4,0-0.7,0-1,0.1c-0.1,0-0.2-0.1-0.3-0.1c-0.1,0-0.2-0.1-0.3-0.1
		c-0.2,0.1-0.4,0.2-0.5,0.1s-0.3-0.1-0.5-0.1c-0.1,0-0.2,0-0.3,0s-0.2,0.1-0.3,0.1c-0.2-0.1-0.3-0.1-0.5-0.2c-0.2,0-0.4-0.1-0.5-0.1
		c-0.1,0-0.2,0-0.3,0.1c-0.1,0-0.2,0.1-0.2,0.1c-0.1,0-0.2,0-0.3,0s-0.2,0-0.3,0c-0.2,0-0.4,0-0.5,0c-0.1,0.1-0.2,0.1-0.3,0
		c-0.1,0.1-0.3,0.2-0.5,0.2c-0.2,0-0.3,0.1-0.4,0.2c-0.1,0.2-0.1,0.3-0.2,0.3s0,0-0.1,0.1c-0.1,0.1-0.2,0.2-0.2,0.4
		c0,0.1-0.1,0.2-0.3,0.3c0,0.2-0.1,0.4-0.2,0.6c-0.1,0.2-0.2,0.3-0.3,0.5c0,0.1,0,0.2,0,0.2s0,0.1,0,0.2c-0.1,0.2-0.1,0.3-0.1,0.4
		s0.1,0.1,0,0.1c-0.1,0.1-0.2,0.2-0.2,0.3c0,0.1-0.1,0.1-0.2,0c0,0.4-0.1,0.7-0.3,0.9c-0.2,0.2-0.5,0.4-0.7,0.7c-0.2,0-0.3,0-0.5,0
		s-0.3,0.1-0.5,0.1c-0.1-0.1-0.3-0.1-0.4-0.2c-0.2,0-0.3-0.1-0.4-0.2c-0.1-0.3-0.2-0.5-0.3-0.6S4,23.7,4,23.5
		c0.1-0.3,0.2-0.5,0.4-0.7c0.1-0.2,0.2-0.4,0.3-0.7c0-0.1,0.1-0.2,0.2-0.2s0.1-0.1,0.2-0.3C5,21.6,5,21.5,5,21.4
		c0-0.1,0-0.2,0.1-0.2c0.1-0.2,0.2-0.3,0.3-0.4c0-0.1,0.1-0.1,0.2-0.2c0-0.2,0-0.4,0.2-0.5C5.9,20.1,6,20,6,19.8
		c0-0.2,0-0.4-0.1-0.6c-0.1-0.2-0.1-0.4-0.1-0.6c0-0.1,0-0.3,0.1-0.3c0.1-0.1,0.2-0.1,0.3-0.2s0.2-0.1,0.3-0.2
		c0.1-0.1,0.1-0.2,0.2-0.3h0.3C7,17.5,7.1,17.2,7.2,17s0.2-0.5,0.3-0.7c0-0.1,0.1-0.2,0-0.3c0-0.1,0-0.2,0-0.3
		c0.1-0.2,0.2-0.3,0.2-0.4c0-0.1,0-0.1,0.2-0.2c0-0.2,0-0.3,0-0.4s0.1-0.2,0.1-0.3c0.1-0.1,0.1-0.2,0.2-0.2c0.1-0.1,0.2-0.1,0.2-0.1
		v-0.4c0.1,0,0.1-0.1,0.2-0.2c0-0.1,0.1-0.1,0.2-0.1c0-0.1,0-0.2,0-0.2c0-0.1,0-0.1,0.1-0.1c0-0.1,0.1-0.2,0-0.2c0-0.1,0-0.2,0-0.2
		c0-0.1,0.1-0.2,0.2-0.3c0.1-0.1,0.1-0.2,0.1-0.3c0,0-0.1-0.1,0-0.1c0,0,0-0.1,0.1-0.2s0.1-0.1,0.1-0.2s0-0.1,0-0.3
		c0.1-0.1,0.1-0.1,0.2-0.2c0-0.1,0.1-0.1,0.1-0.2c0-0.2,0-0.4,0-0.5c0-0.1,0.1-0.3,0.1-0.5c0.1-0.1,0.3-0.1,0.3-0.3
		c0-0.1,0-0.3,0-0.4c0-0.1,0.1-0.3,0.1-0.4s0.1-0.2,0.1-0.4c0-0.1,0-0.2-0.1-0.4c0.1-0.2,0.2-0.3,0.3-0.4c0.1-0.1,0.2-0.2,0.1-0.5
		c0.1-0.1,0.3-0.3,0.5-0.5c0.2-0.2,0.2-0.4,0.1-0.6c0.2-0.2,0.3-0.5,0.4-0.7C12,5.3,12,5,12,4.7c0.1-0.2,0.2-0.4,0.3-0.7
		c0.1-0.3,0.2-0.5,0.1-0.8c0.1,0,0.2-0.1,0.2-0.2c0-0.1,0-0.2,0.1-0.3c0,0,0.1-0.1,0.1-0.1c0.1-0.1,0.1-0.1,0.1-0.2
		C13,2.3,13.1,2.1,13.2,2c0.1-0.1,0.1-0.3,0.2-0.4c0.1-0.1,0.1-0.2,0.2-0.3c0.1-0.1,0.2-0.2,0.2-0.3h0.4c0-0.1,0.1-0.2,0.2-0.2
		s0.2,0,0.3,0s0.2,0,0.4,0c0.1,0,0.2,0,0.3,0c0.1,0.1,0.1,0.1,0.2,0.2c0.1,0,0.1,0.1,0.2,0.1C15.9,1,16,1.1,16,1.1s0.1,0.2,0,0.3
		c0.1,0,0.1,0.1,0.2,0.1c0,0,0.1,0.1,0.2,0.1c0,0.1,0,0.2,0,0.3c0.1,0.1,0.1,0.2,0.1,0.3c0,0,0,0.1-0.1,0.2s-0.1,0.1-0.1,0.3
		c0,0.2,0,0.3,0.1,0.4s0.1,0.3,0.2,0.4c0,0.2-0.1,0.3-0.1,0.3c0,0.1,0,0.2,0.1,0.3c0,0.1,0,0.2,0,0.3c0,0,0,0,0.1,0.1
		c0,0,0,0.1,0,0.1c0,0.1,0,0.1,0,0.3C17,4.9,17.1,5,17.1,5.1s0.1,0.2,0.2,0.2c0,0.2,0,0.4,0.1,0.5c0.1,0.1,0.2,0.3,0.4,0.4
		c0,0.2,0,0.3,0.1,0.4c0.1,0.1,0.1,0.2,0.1,0.4c0,0.2,0.1,0.3,0.3,0.4c0,0.1,0,0.3,0,0.4c0,0.1,0.1,0.3,0.1,0.4
		c0.1,0.1,0.1,0.3,0.2,0.4c0.1,0.1,0.1,0.3,0.2,0.4c0.1,0.5,0.3,1,0.4,1.4c0.1,0.4,0.4,0.8,0.7,1.2c0,0,0,0.1,0,0.2
		c0,0.1,0,0.1-0.1,0.1c0.1,0.1,0.2,0.3,0.3,0.5c0.1,0.2,0.2,0.4,0.2,0.6c0.1,0.3,0.2,0.5,0.2,0.6c0,0.2,0,0.3,0.1,0.5
		c0.2,0.2,0.3,0.4,0.3,0.6c0.1,0.2,0.2,0.4,0.5,0.5c0,0.3,0,0.6,0.2,0.9c0.2,0.3,0.3,0.6,0.3,0.9c0.2,0.2,0.3,0.4,0.4,0.6
		s0.2,0.4,0.4,0.6c0,0.1,0,0.2,0,0.4s0.1,0.2,0.3,0.2c0,0.1,0,0.2,0,0.3c0,0.1,0.1,0.2,0.1,0.2s0.1,0.1,0.2,0.2s0.1,0.1,0.1,0.2
		c0.2,0.2,0.3,0.3,0.4,0.3v0.6c0.1,0.1,0.2,0.2,0.3,0.3s0.3,0.2,0.4,0.3c-0.1,0.3-0.1,0.6,0.1,0.8c0.1,0.2,0.2,0.4,0.2,0.6
		c0,0.1,0,0.2,0,0.2c0,0.1,0,0.1,0,0.2c0,0.1,0,0.2,0,0.2c0,0.1,0,0.1,0,0.2c0,0.2-0.1,0.4-0.2,0.6c-0.1,0.1-0.3,0.3-0.5,0.3
		c-0.2,0.1-0.4,0.1-0.6,0.2S23.2,24.6,23,24.6z M16.8,12.2c0-0.3-0.1-0.6-0.2-0.8c-0.1-0.2-0.2-0.5-0.2-0.8c-0.1,0-0.2-0.1-0.2-0.2
		s0-0.2-0.1-0.2c0.1-0.1,0.1-0.3,0-0.5C16,9.6,15.9,9.4,16,9.2c-0.1,0-0.1-0.1-0.2-0.2c0-0.1-0.1-0.2-0.1-0.2
		c-0.1-0.4-0.2-0.8-0.5-1.1c-0.2-0.3-0.4-0.7-0.5-1c-0.1,0-0.2-0.1-0.2-0.1c-0.1,0-0.1-0.1-0.2-0.1c0,0.1-0.1,0.1-0.2,0.1
		c-0.1,0-0.1,0-0.2,0.1c-0.1,0.1-0.2,0.2-0.1,0.4c0,0.2-0.1,0.3-0.2,0.5c0,0.1,0,0.1,0,0.2c0,0.1,0,0.1,0.1,0.2
		c-0.2,0-0.3,0.1-0.3,0.2c0,0.1,0,0.2-0.1,0.3c-0.1,0.3-0.2,0.4-0.2,0.5s0,0.2,0,0.3L13,9.8c-0.1,0-0.1,0.1-0.2,0.2
		c0,0.1-0.1,0.2-0.1,0.2c-0.1,0.2-0.2,0.3-0.3,0.4c-0.1,0.1-0.1,0.3,0,0.5c-0.1,0.2-0.2,0.3-0.2,0.4c0,0-0.1,0.1-0.1,0.2
		c0,0.1,0,0.2,0,0.3c0,0.1,0,0.2,0,0.2c-0.2,0.2-0.3,0.4-0.3,0.7s-0.1,0.5-0.1,0.8c-0.1,0.1-0.1,0.2-0.1,0.2c0,0.1-0.1,0.1-0.1,0.1
		s0,0.1,0,0.1c0,0,0,0.1-0.1,0.2c-0.2,0.2-0.4,0.4-0.5,0.8s-0.3,0.6-0.3,0.7c-0.1,0-0.1,0.1-0.2,0.1c0,0-0.1,0.1-0.1,0.1
		c0,0.2,0,0.3,0,0.5c-0.1,0.1-0.1,0.3-0.1,0.5c0.1,0.1,0.2,0.1,0.4,0.1c0.1,0,0.3,0,0.4-0.1c0,0,0.1,0.1,0.1,0.1c0.1,0,0.1,0,0.2,0
		s0.1,0,0.2,0c0.1,0,0.1,0,0,0.1c0.4,0,0.8,0,1.3-0.1c0.4,0,0.9,0,1.3,0.2c0.4-0.1,0.8-0.1,1.2-0.1c0.4,0,0.8,0,1.2,0.1
		c0.3-0.1,0.7-0.2,1-0.2c0.3,0,0.7,0,1-0.1c0-0.1,0-0.2,0.1-0.2c0.1,0,0.2-0.1,0.2-0.3c0-0.2-0.1-0.3-0.2-0.5
		c-0.1-0.2-0.2-0.3-0.3-0.5c0-0.1-0.1-0.2-0.1-0.3c0-0.1,0-0.2-0.1-0.3c0-0.1-0.1-0.1-0.2-0.2c-0.1,0-0.1-0.1-0.2-0.2
		c-0.1-0.4-0.3-0.8-0.4-1.2C17.2,12.9,17,12.6,16.8,12.2z"/>
</g>
</svg>
